<?xml version="1.0" standalone="no"?>
<!DOCTYPE svg PUBLIC "-//W3C//DTD SVG 20010904//EN"
 "http://www.w3.org/TR/2001/REC-SVG-20010904/DTD/svg10.dtd">
<svg version="1.0" xmlns="http://www.w3.org/2000/svg"
 width="450.000000pt" height="600.000000pt" viewBox="0 0 450.000000 600.000000"
 preserveAspectRatio="xMidYMid meet">

<g transform="translate(0.000000,600.000000) scale(0.100000,-0.100000)"
fill="#000000" stroke="none">
<path d="M1355 5980 c-23 -26 -8 -26 25 0 18 14 21 20 9 20 -9 0 -24 -9 -34
-20z"/>
<path d="M2345 5992 c6 -5 39 -15 75 -22 49 -9 80 -23 128 -57 35 -25 65 -43
68 -40 5 5 -116 96 -153 116 -28 14 -46 14 -37 0 7 -12 -10 -10 -71 8 -13 3
-17 2 -10 -5z"/>
<path d="M2946 5985 c-21 -7 -55 -30 -75 -49 -37 -37 -110 -60 -152 -49 -24 7
-25 -14 -1 -21 38 -13 133 23 184 68 37 34 61 47 101 54 44 8 46 10 17 10 -19
1 -52 -5 -74 -13z"/>
<path d="M3475 5975 c80 -27 106 -30 151 -13 27 10 37 9 59 -6 15 -10 29 -25
32 -35 5 -20 97 -66 113 -56 7 4 10 20 8 36 -3 16 -1 29 2 29 12 0 100 -71
100 -80 0 -10 -48 -24 -117 -35 -23 -4 -47 -13 -54 -21 -10 -12 -8 -13 12 -6
13 5 54 15 90 22 67 12 129 41 129 60 0 14 -28 12 -32 -2 -3 -9 -17 -3 -44 17
-56 43 -96 70 -117 78 -23 9 -35 -20 -15 -36 23 -18 30 -47 12 -47 -8 0 -17 7
-20 15 -4 8 -9 13 -14 10 -4 -2 -22 9 -41 26 -65 59 -73 62 -127 49 -42 -11
-56 -11 -97 4 -27 9 -60 16 -74 15 -17 -1 -2 -9 44 -24z"/>
<path d="M3850 5995 c0 -8 72 -50 110 -65 19 -7 79 -44 132 -81 112 -79 149
-99 177 -99 29 0 33 -13 15 -55 -19 -46 -12 -57 12 -18 37 57 127 121 156 110
8 -3 5 -8 -9 -13 -33 -13 -14 -36 23 -28 l29 6 3 85 c4 92 7 87 -43 67 -26
-10 -16 13 15 37 34 28 39 44 10 36 -12 -3 -23 1 -29 10 -4 9 -14 14 -21 11
-9 -3 -8 -8 4 -21 16 -16 16 -19 -2 -44 -21 -31 -52 -93 -47 -93 2 0 21 11 41
25 75 51 73 25 -3 -41 -51 -44 -62 -49 -108 -50 -65 -2 -87 8 -222 98 -61 42
-124 79 -139 82 -15 4 -40 16 -55 27 -26 18 -49 25 -49 14z m616 -182 c-10
-10 -19 5 -10 18 6 11 8 11 12 0 2 -7 1 -15 -2 -18z"/>
<path d="M4362 5988 c3 -7 12 -14 21 -16 12 -2 15 1 11 12 -7 19 -38 22 -32 4z"/>
<path d="M2038 5971 c-21 -12 -53 -21 -70 -21 l-33 1 25 14 c36 21 3 18 -45
-4 -40 -18 -77 -51 -57 -51 5 0 23 7 38 15 16 8 51 15 77 15 26 0 60 6 75 14
15 7 48 13 74 12 55 -1 51 10 -7 19 -30 5 -49 1 -77 -14z"/>
<path d="M2250 5975 c0 -8 11 -17 25 -21 13 -3 23 -11 22 -17 -1 -6 7 -12 18
-14 16 -3 17 -2 5 6 -12 9 -10 11 10 11 l25 1 -25 10 c-20 8 -22 12 -10 19 10
7 5 8 -17 4 -22 -4 -33 -3 -33 5 0 6 -4 11 -10 11 -5 0 -10 -7 -10 -15z"/>
<path d="M4203 5974 c-8 -21 8 -35 54 -44 21 -5 48 -12 61 -15 46 -15 20 13
-30 32 -29 11 -52 25 -50 31 3 18 -28 14 -35 -4z"/>
<path d="M3075 5938 c-28 -11 -59 -24 -70 -29 -11 -4 -40 -13 -65 -20 -53 -13
-95 -34 -124 -61 -12 -11 -30 -18 -43 -15 -13 2 -20 0 -16 -6 3 -5 23 -6 44
-3 39 6 39 6 39 -28 0 -41 29 -73 32 -35 2 44 -2 62 -19 74 -15 11 -14 14 8
28 37 23 116 47 157 47 20 0 59 -7 86 -15 57 -17 129 -19 157 -5 14 8 27 7 48
-5 17 -8 53 -14 83 -14 l53 1 -60 13 c-33 7 -72 18 -87 25 -23 11 -31 10 -54
-5 -29 -19 -100 -15 -149 7 -34 15 -31 23 11 40 21 8 33 18 28 21 -5 3 -32 -4
-59 -15z"/>
<path d="M2760 5936 c0 -21 20 -30 33 -17 8 8 7 11 -3 11 -13 0 -13 2 0 10 12
8 11 10 -7 10 -13 0 -23 -6 -23 -14z"/>
<path d="M3298 5943 c12 -2 30 -2 40 0 9 3 -1 5 -23 4 -22 0 -30 -2 -17 -4z"/>
<path d="M3435 5940 c28 -12 47 -12 40 0 -3 6 -18 10 -33 9 -24 0 -25 -1 -7
-9z"/>
<path d="M3482 5823 c18 -19 19 -23 5 -23 -9 0 -17 -4 -17 -9 0 -10 24 -21 48
-21 19 0 121 -61 122 -72 0 -4 -4 -17 -9 -30 -7 -19 -23 -26 -92 -41 -46 -10
-101 -25 -122 -33 -20 -8 -48 -14 -62 -14 -30 0 -75 -20 -75 -33 0 -5 10 -6
23 -2 12 4 45 11 72 15 28 5 68 15 90 23 90 32 296 45 380 24 11 -3 26 -6 34
-6 8 -1 12 -4 9 -7 -4 -3 -64 -7 -135 -9 -75 -2 -171 -12 -233 -24 -102 -21
-211 -64 -218 -87 -3 -13 9 -10 173 33 133 35 200 42 390 42 140 0 165 -2 200
-19 l40 -20 -45 6 c-120 17 -382 -1 -438 -30 -19 -10 -52 -17 -75 -17 -51 1
-147 -29 -147 -45 0 -18 27 -37 35 -24 9 15 75 12 131 -5 27 -8 123 -28 214
-44 91 -16 177 -34 191 -40 15 -5 29 -7 33 -4 8 8 157 -8 151 -16 -2 -5 -28
-7 -57 -5 -39 2 -46 0 -28 -6 14 -4 52 -9 85 -9 36 -1 76 -9 100 -20 l40 -19
-90 -1 c-54 -1 -110 5 -140 14 -27 9 -90 20 -140 25 -65 6 -109 17 -159 39
-72 33 -93 37 -225 46 -99 6 -121 11 -179 37 -24 11 -65 22 -90 25 -50 6 -105
40 -98 59 6 16 -18 36 -35 29 -8 -3 -21 7 -31 25 -9 16 -37 42 -63 57 -25 15
-45 35 -45 44 0 21 -28 46 -62 54 -25 6 -26 5 -22 -24 5 -30 4 -31 -23 -25
-15 4 -46 13 -68 22 -22 8 -53 14 -70 14 -16 -1 -43 -1 -60 0 -16 0 -41 1 -55
0 -13 0 -37 11 -53 24 -44 37 -97 33 -145 -10 -42 -38 -82 -110 -82 -147 0
-13 7 -36 14 -51 13 -25 13 -28 -2 -28 -14 -1 -14 -2 3 -12 11 -6 29 -20 39
-30 36 -33 112 -13 168 43 56 56 78 68 137 74 42 4 57 1 79 -15 33 -24 92 -43
92 -29 0 6 -14 15 -30 21 -18 6 -32 19 -36 34 -7 28 -36 39 -63 25 -28 -16
-67 -13 -81 4 -7 8 -18 15 -26 15 -15 0 -34 30 -34 54 0 9 8 16 18 16 17 0
121 -47 132 -60 3 -3 19 -5 35 -5 18 1 35 -6 42 -16 7 -9 26 -19 42 -22 16 -4
38 -18 48 -33 10 -14 28 -37 40 -50 13 -14 27 -33 33 -44 9 -17 8 -20 -8 -20
-33 0 -44 -24 -22 -43 30 -26 24 -71 -11 -79 -23 -5 -80 55 -68 73 14 23 11
28 -24 34 -24 5 -53 -1 -103 -21 -38 -15 -71 -30 -74 -33 -13 -15 -93 -10
-140 9 -28 11 -64 20 -81 20 -49 0 -116 21 -135 41 -9 10 -25 19 -35 19 -10 0
-20 4 -23 9 -7 11 -46 2 -46 -9 0 -13 56 -50 77 -50 10 0 27 -7 37 -15 11 -8
28 -15 38 -15 11 0 33 -7 50 -16 17 -9 46 -16 64 -16 39 0 47 -8 48 -52 1 -21
8 -34 24 -42 13 -6 20 -14 15 -17 -55 -33 -83 -45 -88 -37 -4 6 -11 10 -16 10
-6 0 -7 -5 -4 -11 4 -6 -2 -5 -13 2 -12 7 -18 17 -15 23 4 5 -8 0 -26 -13 -19
-13 -34 -35 -38 -52 -8 -41 -18 -36 -35 15 -13 39 -13 46 1 65 20 26 56 34 81
19 16 -10 23 -8 44 15 22 24 23 27 7 27 -10 0 -24 -7 -31 -15 -10 -12 -16 -13
-26 -4 -8 6 -27 9 -44 6 -25 -5 -35 0 -67 33 -22 24 -46 40 -59 40 -35 0 -39
-20 -6 -26 23 -5 28 -10 25 -25 -5 -19 17 -49 36 -49 6 0 11 -6 11 -13 0 -24
-13 -27 -30 -7 -30 35 -94 47 -130 25 -17 -10 -11 -38 14 -76 19 -28 22 -39
13 -49 -10 -10 -5 -11 21 -5 28 6 32 4 32 -14 0 -15 9 -22 37 -27 21 -4 43 -2
54 4 15 10 22 7 40 -16 12 -15 19 -19 16 -10 -7 19 21 118 34 118 4 0 5 -17 2
-39 -5 -35 11 -111 23 -111 3 0 14 5 25 10 27 15 79 -13 72 -39 -2 -10 0 -22
6 -25 6 -4 11 -15 11 -25 0 -10 9 -26 19 -35 25 -23 34 -61 21 -86 -6 -11 -12
-41 -14 -67 -3 -28 -10 -52 -20 -59 -9 -6 -15 -18 -14 -25 4 -15 -38 -39 -68
-39 -12 0 -28 -10 -36 -22 -12 -18 -15 -19 -21 -6 -3 9 3 25 14 36 10 12 15
23 10 26 -5 3 -12 -1 -15 -10 -3 -8 -20 -21 -38 -29 -44 -18 -49 -24 -37 -46
7 -15 6 -19 -6 -19 -8 0 -20 -12 -26 -27 -6 -15 -15 -31 -22 -35 -6 -4 0 -9
15 -13 21 -5 38 2 83 37 32 23 66 48 77 54 11 7 25 17 31 23 6 6 17 11 25 11
8 0 25 9 39 20 15 11 29 18 32 14 3 -3 -2 -12 -13 -19 -11 -8 -16 -21 -13 -30
4 -9 1 -15 -7 -15 -9 0 -12 -9 -8 -26 4 -22 6 -24 14 -10 5 9 13 14 18 11 5
-3 11 -1 15 5 3 5 11 10 16 10 13 0 2 -39 -16 -60 -8 -8 -14 -19 -14 -25 0 -5
-4 -11 -10 -13 -6 -2 -11 3 -11 12 0 8 -5 18 -11 22 -8 5 -10 -3 -5 -28 4 -24
1 -40 -9 -53 -15 -19 -16 -19 -5 3 20 40 4 35 -38 -13 -27 -31 -38 -52 -35
-65 3 -12 0 -20 -6 -20 -7 0 -9 -5 -5 -12 5 -7 2 -9 -8 -6 -8 4 -20 -2 -26
-13 -19 -30 -32 -23 -21 13 10 37 3 50 -15 25 -7 -9 -17 -17 -23 -17 -5 0 -19
-14 -32 -30 -22 -31 -110 -80 -143 -80 -10 0 -18 -6 -18 -14 0 -8 -5 -18 -10
-21 -6 -4 -9 -3 -8 2 3 7 -7 15 -14 12 -22 -6 -118 -6 -118 1 0 5 5 21 12 35
10 22 9 27 -8 39 -31 23 -9 29 60 15 l65 -12 36 31 c19 18 40 32 45 32 6 0 10
5 10 10 0 6 -7 10 -15 10 -9 0 -19 10 -24 23 -5 13 -43 54 -85 92 -42 37 -76
75 -76 84 0 9 -5 22 -12 29 -8 8 -9 12 -1 12 40 0 58 83 25 113 -24 22 -35 22
-23 -1 15 -28 -3 -47 -40 -44 -52 6 -108 -30 -87 -55 8 -10 7 -13 -3 -13 -30
0 -59 13 -59 26 0 8 -4 14 -10 14 -5 0 -10 5 -10 11 0 5 5 7 10 4 6 -3 10 3
10 15 0 51 63 121 76 85 7 -17 30 -20 40 -4 3 6 1 22 -6 35 -10 18 -11 30 -2
48 11 25 58 41 66 22 3 -7 8 -6 14 3 8 12 15 9 36 -15 14 -16 26 -33 26 -37 0
-8 18 -27 64 -67 27 -24 28 -24 15 -2 -8 12 -17 22 -21 22 -5 0 -8 7 -8 15 0
8 5 15 10 15 6 0 10 9 10 20 0 16 6 20 33 18 24 -2 31 1 29 13 -1 9 11 21 34
29 34 14 35 15 13 20 -15 4 3 9 49 13 41 4 84 13 95 20 21 12 21 12 -10 15
-18 2 -42 -3 -55 -12 -25 -16 -105 -14 -135 3 -13 7 1 9 52 5 51 -4 66 -3 55
5 -11 8 -12 11 -2 11 7 0 20 7 28 15 14 13 14 15 0 15 -9 0 -24 4 -34 9 -76
40 -163 49 -175 17 -8 -20 -68 -26 -85 -9 -20 20 -23 12 -11 -30 11 -42 5 -59
-19 -55 -10 1 -23 -1 -31 -6 -9 -6 -17 -3 -23 8 -5 9 -21 16 -36 15 -27 0 -27
0 -4 -11 32 -16 27 -42 -16 -85 -60 -60 -114 -156 -106 -190 8 -33 32 -63 50
-63 22 0 27 -20 9 -40 -20 -22 -13 -53 10 -44 9 4 15 1 15 -9 0 -8 9 -26 21
-40 16 -21 18 -31 10 -46 -6 -11 -11 -31 -11 -45 0 -28 26 -59 42 -50 6 4 8
-2 3 -17 -4 -13 -7 -26 -7 -29 -1 -26 4 -30 29 -24 24 6 26 5 19 -17 -5 -13
-9 -38 -10 -56 -2 -17 -8 -39 -15 -47 -24 -29 2 -64 43 -57 5 1 17 -6 27 -15
17 -15 19 -15 25 0 3 9 17 16 31 16 20 0 24 4 21 23 -3 22 15 43 57 65 34 17
170 25 210 12 52 -17 61 -41 30 -86 -28 -41 -30 -55 -13 -72 14 -14 -16 -52
-42 -52 -20 0 -35 -16 -44 -47 -5 -17 -3 -23 7 -23 21 0 9 -40 -18 -62 -12 -9
-35 -52 -50 -95 -26 -73 -27 -85 -22 -200 4 -100 2 -125 -10 -135 -12 -10 -13
-27 -8 -92 4 -45 13 -91 21 -103 21 -33 18 -42 -31 -137 -41 -79 -76 -208 -61
-223 6 -7 31 53 39 93 6 31 70 136 81 134 4 0 21 13 39 30 34 31 57 39 57 18
0 -9 4 -8 10 2 9 14 15 7 11 -14 -1 -5 8 -15 20 -24 19 -13 20 -16 5 -24 -9
-5 -16 -20 -16 -34 0 -14 -5 -35 -12 -47 -6 -12 -12 -36 -14 -54 -1 -19 -9
-66 -18 -106 -8 -39 -19 -94 -24 -122 -13 -65 -38 -140 -65 -193 l-22 -43 24
-20 23 -19 -30 0 c-17 0 -37 -6 -44 -14 -9 -10 -19 -11 -34 -4 -19 9 -21 15
-13 42 12 40 11 56 -1 56 -5 0 -12 -11 -16 -25 -8 -31 -21 -31 -56 -2 l-28 23
20 52 c24 64 26 79 5 62 -8 -7 -15 -19 -15 -27 0 -7 -9 -31 -20 -53 l-20 -39
37 -26 c21 -14 43 -25 50 -25 7 0 13 -9 13 -19 0 -11 4 -22 9 -25 13 -8 21
-78 11 -91 -6 -7 -21 -10 -35 -8 -21 4 -23 9 -18 34 4 23 0 33 -26 55 -72 61
-78 66 -57 59 19 -5 19 -5 4 12 -15 17 -15 24 11 98 28 79 42 112 82 189 11
21 18 48 16 60 -2 16 -10 8 -33 -39 -16 -33 -38 -73 -48 -88 -10 -15 -23 -49
-27 -75 -17 -90 -65 -121 -131 -83 -44 26 -114 37 -133 21 -17 -14 -17 -15
-39 75 -29 115 -131 391 -186 504 -12 24 -23 62 -25 85 -2 22 -15 88 -29 146
-13 58 -32 139 -41 179 -10 41 -21 82 -25 90 -9 17 -45 158 -67 261 -7 36 -18
74 -23 85 -5 11 -14 56 -20 100 -6 44 -17 105 -25 135 -15 55 -15 55 -10 10
18 -164 37 -345 40 -400 6 -91 -9 -31 -30 120 -9 63 -25 142 -35 175 -21 69
-66 312 -74 399 -6 72 13 63 25 -11 8 -55 47 -167 48 -140 1 10 -6 34 -15 55
-8 20 -17 58 -20 85 -2 26 -17 82 -34 125 -16 42 -30 83 -30 90 0 7 -6 23 -14
35 -8 12 -33 78 -56 147 -23 69 -57 157 -75 196 -33 69 -89 220 -104 279 -4
17 -40 95 -79 173 -40 78 -72 148 -72 155 0 19 -53 67 -73 67 -18 0 -23 -29
-9 -45 5 -6 15 -26 22 -45 8 -19 26 -62 42 -94 15 -33 28 -65 28 -71 0 -7 6
-25 14 -41 8 -16 21 -47 30 -69 10 -22 32 -71 51 -110 84 -172 153 -364 136
-374 -12 -8 -1 -54 35 -161 25 -72 32 -141 39 -385 6 -233 25 -413 52 -495 8
-24 18 -72 22 -105 9 -67 46 -198 97 -350 18 -55 38 -113 43 -130 24 -74 63
-211 91 -320 17 -65 35 -124 40 -130 17 -20 88 -248 83 -263 -3 -8 -2 -17 3
-21 5 -3 14 -16 21 -28 10 -18 9 -30 -9 -70 -11 -26 -25 -50 -30 -52 -20 -7
-48 -46 -43 -59 7 -20 -14 -44 -34 -38 -43 13 -99 -94 -57 -110 8 -3 27 -23
41 -45 22 -31 25 -42 15 -54 -7 -8 -9 -26 -6 -42 6 -26 3 -30 -31 -42 -59 -21
-121 -48 -213 -95 -47 -24 -102 -49 -123 -56 -21 -6 -52 -27 -69 -46 -17 -19
-36 -34 -43 -34 -13 0 -52 -39 -71 -72 -32 -56 -34 -69 -23 -135 6 -35 9 -77
5 -93 -3 -17 1 -42 8 -57 34 -67 38 -83 32 -108 -5 -19 -4 -25 5 -19 9 5 10 0
6 -19 -4 -14 -1 -39 8 -58 l16 -34 -6 35 -5 35 22 -45 c13 -25 33 -56 44 -69
12 -13 27 -50 34 -82 7 -33 17 -62 21 -65 5 -3 9 -14 9 -24 0 -11 14 -66 30
-123 17 -58 30 -108 30 -112 0 -4 -11 -4 -25 -1 -25 6 -85 -19 -85 -35 0 -4
-6 -14 -13 -21 -17 -17 -63 -95 -78 -130 -20 -49 -41 -35 -53 34 -3 15 -7 32
-11 38 -3 5 -8 22 -10 37 -3 16 -12 57 -19 92 -8 36 -13 68 -10 72 2 4 0 9 -4
11 -5 1 -11 28 -14 58 -3 30 -4 47 -1 38 2 -9 10 -15 18 -12 19 8 27 -12 10
-26 -29 -24 -18 -48 26 -60 31 -9 44 -9 49 0 8 13 1 60 -9 60 -13 0 -61 48
-61 62 0 8 -5 19 -11 25 -6 6 -13 32 -15 59 -4 48 -13 69 -21 47 -9 -24 -23
-13 -23 18 0 17 -4 28 -10 24 -5 -3 -10 1 -10 9 0 9 5 16 11 16 5 0 7 5 4 10
-4 6 -12 4 -21 -5 -23 -22 -27 -19 -20 18 4 20 3 27 -3 18 -7 -11 -10 -10 -15
6 -3 11 -16 30 -27 42 l-22 23 27 26 27 27 -6 -26 c-7 -28 3 -42 22 -31 14 10
-2 51 -24 59 -9 4 -18 2 -20 -4 -2 -5 -15 -8 -29 -5 -23 4 -24 2 -18 -24 4
-16 11 -31 15 -34 4 -3 8 -14 8 -25 -1 -11 3 -31 7 -45 4 -14 3 -22 -1 -18 -4
4 -14 0 -21 -10 -12 -16 -13 -15 -14 6 0 12 -4 22 -10 22 -5 0 -10 9 -10 20 0
11 -5 20 -11 20 -5 0 -7 5 -4 10 8 13 -22 43 -35 35 -8 -5 -7 -11 1 -21 6 -8
8 -14 4 -14 -4 0 -2 -6 4 -14 10 -11 8 -17 -6 -25 -14 -8 -16 -12 -6 -22 10
-10 16 -9 28 7 14 19 14 19 16 -1 1 -11 0 -28 -1 -39 -1 -11 3 -15 9 -12 7 4
11 -1 11 -12 0 -21 -41 -35 -76 -26 -16 4 -22 -4 -35 -48 l-16 -53 -13 27
c-14 30 -30 37 -30 15 0 -8 6 -35 14 -62 13 -42 13 -49 -1 -63 -13 -14 -15
-35 -10 -142 3 -69 3 -138 0 -154 -6 -29 -7 -28 -18 18 -7 26 -11 80 -9 119 4
74 0 80 -11 14 -5 -34 -8 -37 -32 -31 -23 6 -25 5 -19 -22 15 -78 20 -110 17
-119 -2 -5 -8 -39 -15 -74 -7 -36 -16 -66 -21 -68 -6 -2 -19 34 -29 80 -10 45
-23 91 -29 101 -5 10 -15 87 -23 170 -7 83 -18 186 -25 229 -6 43 -9 95 -6
117 3 28 1 43 -10 51 -26 22 -30 -6 -16 -104 17 -123 30 -265 38 -422 4 -71
10 -184 14 -250 4 -66 6 -122 5 -124 -11 -14 -43 202 -49 329 -3 52 -9 108
-15 125 -5 16 -11 46 -14 65 -7 61 -47 194 -61 209 -27 27 -27 3 -1 -73 14
-41 28 -103 31 -138 3 -35 10 -79 15 -98 5 -19 11 -66 14 -105 6 -65 4 -60
-24 59 -16 71 -43 156 -59 190 -37 76 -41 46 -7 -51 27 -76 51 -189 60 -275 3
-31 9 -64 13 -74 4 -12 3 -15 -5 -10 -7 4 -12 1 -12 -8 0 -9 6 -16 14 -16 9 0
17 -25 26 -78 7 -42 15 -90 19 -106 10 -41 29 -45 23 -5 -4 29 -3 30 17 19 20
-10 22 -17 16 -53 -7 -41 -30 -82 -58 -105 -11 -9 -16 -2 -29 36 -25 73 -30
122 -12 129 13 5 13 7 0 22 -9 10 -19 33 -22 52 -4 19 -10 39 -14 44 -4 6 -12
31 -19 57 -6 26 -25 75 -41 110 -27 55 -30 59 -27 28 3 -19 17 -68 31 -109 15
-41 25 -79 23 -84 -1 -5 -15 8 -30 30 l-27 38 0 -208 0 -207 295 0 c223 0 295
3 295 12 0 9 3 9 12 0 8 -8 50 -12 127 -12 l116 1 30 59 c16 33 33 56 37 52 5
-5 11 -32 15 -60 5 -46 9 -52 29 -52 25 0 33 23 38 105 2 40 2 40 74 69 68 28
83 44 52 54 -8 3 -10 0 -5 -9 6 -11 5 -12 -6 -2 -18 18 -40 16 -69 -7 -32 -25
-41 -25 -32 1 5 11 30 33 58 48 31 17 49 33 48 44 -1 9 2 14 7 11 5 -3 9 2 9
10 0 20 -55 5 -85 -24 -27 -25 -45 -26 -45 -1 0 11 -3 27 -7 36 -5 15 -8 15
-24 -6 l-19 -24 0 25 c-1 22 -2 23 -9 6 -7 -18 -8 -18 -14 -2 -7 17 11 56 25
56 5 0 8 5 8 11 0 5 -5 7 -12 3 -7 -4 -8 -3 -4 4 4 6 13 9 21 5 10 -3 15 1 15
13 0 16 2 17 10 4 5 -9 6 -16 0 -18 -10 -4 -2 -32 10 -32 12 0 43 78 37 94 -5
11 0 16 13 16 13 0 18 5 14 15 -4 8 -1 15 6 15 7 0 10 6 7 14 -6 16 11 36 30
36 8 0 16 -8 20 -17 3 -10 32 -74 65 -142 41 -84 57 -126 50 -133 -12 -12 1
-54 25 -81 9 -9 17 -29 19 -45 1 -15 5 -42 10 -61 5 -23 4 -32 -3 -28 -6 4
-14 -1 -18 -10 -3 -10 -2 -19 4 -21 5 -2 7 -10 4 -18 -4 -12 39 -14 301 -14
168 0 306 3 305 8 0 4 -4 16 -9 27 -8 19 -9 19 -9 -3 -1 -15 -6 -22 -13 -18
-7 2 -32 10 -55 17 -23 6 -48 17 -54 25 -6 8 -28 14 -48 14 -21 0 -46 7 -57
16 -18 14 -17 15 16 11 19 -2 71 -11 115 -20 44 -9 97 -19 117 -22 21 -3 40
-11 44 -17 5 -8 2 -9 -9 -5 -12 5 -17 1 -17 -13 0 -19 7 -20 139 -20 l139 0 5
68 c5 79 14 123 29 137 13 12 0 -55 -13 -70 -5 -5 -9 -38 -8 -75 0 -45 3 -59
9 -45 7 17 9 17 9 3 1 -17 34 -18 546 -18 l545 0 0 24 c0 15 -7 26 -17 28 -14
3 -10 11 20 44 20 23 37 46 37 52 0 8 22 22 34 22 1 0 1 -16 0 -35 -3 -36 25
-75 53 -75 8 0 19 -14 24 -30 9 -26 16 -30 47 -30 l35 0 -23 25 c-13 14 -22
26 -19 26 2 1 26 3 53 4 28 1 52 7 54 13 6 20 20 3 15 -18 -3 -11 -8 -18 -12
-16 -4 3 -12 -4 -19 -15 -11 -18 -9 -19 31 -19 31 0 49 6 62 20 10 11 21 18
23 15 3 -3 -3 -12 -14 -20 -17 -13 -4 -14 119 -15 126 0 140 2 167 22 33 24
40 58 13 58 -10 0 -38 -9 -62 -20 -52 -24 -72 -26 -65 -5 5 11 2 13 -12 8 -12
-4 -15 -3 -10 5 8 14 -25 4 -35 -10 -9 -13 -71 -29 -63 -16 5 8 1 9 -12 4 -12
-4 -8 4 14 24 17 17 37 28 42 25 6 -3 10 -1 10 5 0 7 6 10 14 7 8 -3 17 1 20
10 4 11 14 13 32 9 15 -4 23 -3 20 2 -3 5 18 12 47 16 57 7 101 14 132 20 11
2 23 -2 27 -8 5 -7 8 -7 8 3 0 10 3 11 14 2 10 -9 16 -8 26 4 7 8 17 15 23 15
6 0 -4 -13 -23 -29 -19 -16 -39 -26 -45 -23 -5 3 -7 2 -3 -3 5 -5 -16 -33 -44
-63 -75 -79 -42 -80 37 -2 34 34 65 58 67 54 3 -5 3 -4 2 3 -2 7 1 15 5 18 14
8 78 -23 85 -40 5 -14 10 -14 38 6 18 13 35 26 38 29 3 3 18 11 35 19 27 11
28 14 13 25 -19 14 -14 51 9 74 7 8 11 18 7 23 -3 5 3 12 13 15 10 3 37 14 61
26 l42 21 -2 291 -3 290 -44 17 c-24 9 -40 18 -35 22 5 3 25 -2 44 -12 l35
-17 1 106 c1 58 -1 98 -3 90 -34 -96 -46 -120 -60 -120 -12 0 -13 6 -7 28 10
35 10 66 1 125 -9 52 0 60 33 27 33 -33 40 -24 40 45 0 62 -1 65 -24 65 -14 0
-28 5 -31 11 -4 6 -1 10 6 8 41 -5 49 1 49 39 -1 33 -7 42 -61 85 -58 45 -89
58 -89 37 0 -5 7 -10 15 -10 18 0 125 -101 125 -118 0 -7 -7 -12 -15 -12 -8 0
-15 5 -15 10 0 6 -7 10 -15 10 -22 0 -84 59 -106 101 -20 40 -59 82 -67 74 -3
-3 1 -13 9 -22 9 -10 21 -31 27 -48 l12 -30 -20 25 c-11 14 -32 38 -45 55 -29
34 -31 61 -10 112 20 47 19 61 -9 178 -36 153 -56 268 -50 291 7 27 -22 168
-43 208 -13 23 -17 60 -19 138 -1 106 -2 108 -38 160 -21 32 -36 65 -36 83 0
49 -10 74 -27 68 -32 -13 -31 21 3 84 39 74 42 101 13 175 -31 81 -75 122
-148 138 -33 7 -70 10 -82 7 -12 -3 -31 -1 -42 5 -17 9 -19 8 -13 -7 5 -15 2
-16 -21 -10 -16 4 -39 9 -52 11 -14 3 -28 7 -33 10 -13 8 -10 -2 23 -63 17
-32 24 -50 17 -41 -18 21 -126 58 -131 45 -2 -6 -12 -5 -26 2 -16 9 -26 10
-33 3 -6 -6 -18 -8 -27 -4 -14 5 -14 3 2 -21 21 -32 12 -35 -19 -6 -25 24 -60
19 -50 -6 3 -9 0 -15 -8 -15 -25 0 -46 12 -46 26 0 17 -46 48 -60 39 -14 -9
-12 -35 5 -69 19 -36 19 -42 0 -26 -10 9 -15 9 -15 1 0 -22 -17 -10 -33 24
-15 31 -19 34 -48 28 -24 -4 -34 -2 -41 10 -5 10 -15 17 -23 17 -7 0 -15 5
-17 11 -2 7 -26 11 -60 10 l-56 -1 -61 65 c-33 36 -61 72 -61 80 0 18 -12 19
-27 4 -6 -6 -23 -9 -39 -7 -22 2 -28 8 -26 21 2 10 -2 59 -8 109 -13 110 -6
161 21 153 11 -4 19 -2 19 4 0 6 12 14 28 17 15 4 47 15 71 26 36 15 42 16 37
3 -7 -19 1 -19 20 0 36 35 64 119 64 190 0 39 -3 80 -6 93 -11 38 -24 24 -24
-26 0 -39 -5 -53 -25 -72 -13 -12 -30 -39 -36 -59 -6 -20 -15 -40 -19 -44 -11
-12 -40 33 -40 60 0 13 -4 23 -10 23 -13 0 -13 -21 0 -55 8 -20 6 -29 -10 -45
-23 -23 -25 -31 -6 -24 22 8 27 -11 6 -24 -15 -9 -21 -7 -34 13 -21 31 -21
126 -1 165 8 16 15 33 14 37 -5 31 39 83 71 83 16 0 20 6 20 38 1 32 6 41 47
72 26 19 61 49 77 66 57 58 171 144 206 155 19 6 43 18 52 27 14 12 21 12 33
2 23 -19 48 -5 35 19 -18 35 -11 34 34 -3 24 -20 49 -36 54 -36 5 0 15 -7 22
-15 18 -22 50 -19 50 4 0 15 10 21 40 26 34 6 39 9 29 21 -6 8 -16 11 -23 7
-6 -3 -4 2 5 11 12 13 21 15 40 7 14 -5 37 -7 52 -4 16 3 47 -3 76 -16 28 -11
60 -21 73 -21 44 0 62 -45 37 -92 -10 -18 -9 -20 6 -14 10 3 27 -2 42 -13 13
-11 30 -18 37 -15 8 3 12 -3 11 -18 -2 -14 -8 -22 -16 -20 -8 2 -4 -7 9 -20
12 -14 22 -29 22 -35 0 -6 18 -31 40 -54 73 -79 81 -90 104 -155 26 -70 54
-110 68 -96 5 5 34 -16 68 -48 43 -41 58 -62 54 -76 -5 -19 20 -46 144 -157
l32 -29 0 128 c0 99 -3 125 -12 116 -6 -6 -13 -40 -16 -74 -5 -95 -8 -99 -48
-54 -32 37 -43 59 -26 54 26 -9 -6 29 -93 112 -66 62 -104 106 -112 130 -7 19
-21 53 -31 74 -16 31 -17 45 -9 72 8 25 7 37 -3 49 -16 20 -37 19 -49 -2 -8
-14 -12 -15 -25 -4 -21 18 -4 49 32 57 15 4 39 17 53 31 21 19 31 22 50 15 13
-6 59 -17 101 -27 43 -9 81 -22 85 -28 4 -6 7 -38 7 -71 1 -68 20 -87 29 -29
3 21 9 47 12 59 4 14 -2 30 -19 51 -23 27 -36 32 -111 43 -89 13 -99 17 -85
39 14 24 161 71 223 71 40 0 59 22 38 43 -8 8 -19 8 -44 -2 -57 -23 -76 -24
-173 -6 -88 17 -94 20 -88 39 13 42 34 61 67 61 17 1 42 6 53 13 12 6 24 9 27
5 4 -3 10 3 13 13 4 10 13 26 20 34 8 9 11 26 7 39 -4 17 -8 19 -14 9 -7 -11
-11 -10 -19 2 -5 8 -10 10 -10 5 0 -6 -9 -11 -20 -12 -11 -1 -35 -14 -54 -28
-20 -15 -40 -24 -45 -20 -17 10 -60 -41 -93 -110 -16 -36 -33 -65 -37 -65 -4
0 -26 28 -48 63 -22 34 -78 106 -124 160 -46 54 -97 115 -114 136 -16 21 -45
57 -63 80 -23 28 -29 41 -19 41 9 0 17 -3 19 -7 2 -5 23 -26 48 -47 81 -71
240 -225 240 -233 0 -5 9 -14 20 -21 14 -8 20 -9 20 -1 0 7 10 9 25 7 30 -6
42 7 70 74 11 28 31 58 45 67 24 15 24 15 10 -3 -14 -18 -14 -19 4 -9 15 8 25
4 54 -23 20 -19 42 -34 49 -34 17 0 16 39 -2 70 -25 44 -19 77 22 115 31 29
35 37 23 45 -16 10 -30 1 -34 -22 -2 -15 -30 -48 -40 -48 -3 0 -6 20 -6 44 0
30 -5 46 -15 50 -8 3 -15 1 -15 -5 0 -6 -7 -3 -16 5 -13 14 -17 14 -30 2 -8
-8 -14 -19 -14 -25 0 -16 -8 -14 -56 17 -34 21 -44 33 -45 57 -1 17 -3 23 -6
13 -2 -10 -6 -18 -9 -18 -21 0 -337 167 -358 189 l-27 28 78 -14 c209 -38 298
-58 313 -72 9 -9 32 -16 52 -17 20 -1 52 -11 70 -23 32 -21 32 -21 6 -15 -16
3 -28 4 -28 2 0 -8 88 -68 100 -68 7 0 10 8 7 20 -6 23 -3 24 24 10 30 -17 23
5 -13 35 -17 15 -25 26 -17 24 17 -3 41 6 92 33 28 14 49 19 75 15 33 -5 35
-5 19 7 -12 9 -14 16 -8 21 16 9 14 25 -3 25 -14 0 -30 55 -20 71 3 5 0 9 -5
9 -6 0 -11 -4 -11 -10 0 -5 -6 -10 -14 -10 -8 0 -21 -7 -29 -15 -13 -12 -17
-12 -32 5 -10 11 -22 17 -27 13 -6 -3 -13 -1 -17 4 -3 6 -18 13 -32 16 -21 5
-32 0 -58 -28 -17 -19 -26 -35 -20 -35 8 0 8 -4 -1 -15 -13 -16 -56 -21 -63
-7 -5 9 8 119 18 150 5 16 3 22 -7 22 -14 0 -38 -88 -38 -139 0 -18 -4 -22
-17 -16 -10 3 -72 26 -138 50 -211 78 -270 103 -273 118 -6 31 21 34 153 20
182 -19 196 -12 30 15 -90 15 -143 29 -148 38 -11 18 -43 18 -51 -1 -4 -12
-18 -14 -68 -9 -57 6 -115 23 -80 24 9 0 11 7 7 20 -4 14 -2 18 7 15 7 -3 52
-7 98 -9 59 -2 107 -11 157 -29 39 -14 111 -30 160 -36 48 -6 106 -16 128 -21
22 -5 77 -10 123 -10 67 0 92 -5 130 -24 26 -13 71 -29 100 -36 28 -6 55 -16
58 -21 8 -13 -15 -11 -72 6 -51 15 -77 20 -154 29 -43 5 -43 4 15 -13 86 -26
190 -51 214 -51 38 0 25 36 -23 64 -24 14 -58 37 -75 52 l-31 26 46 24 c25 13
50 24 57 24 15 1 52 28 46 34 -5 5 -66 -14 -86 -27 -7 -4 -30 -14 -52 -22 -38
-13 -43 -12 -84 9 -24 13 -58 27 -75 31 -33 7 -39 22 -22 55 12 23 50 15 50
-11 0 -14 7 -19 25 -19 14 0 25 -4 25 -10 0 -17 20 -11 27 8 9 27 75 92 93 92
9 0 21 5 26 10 6 6 25 12 42 13 18 1 32 7 32 13 0 13 -58 6 -85 -11 -11 -7
-36 -16 -55 -20 -19 -4 -42 -12 -50 -19 -49 -37 -93 -46 -51 -10 11 10 18 22
15 26 -13 21 93 98 135 98 11 0 23 5 26 10 8 13 3 13 -61 -6 -29 -8 -68 -14
-86 -12 l-33 3 50 23 c28 13 62 28 78 35 15 6 27 15 27 19 0 13 -33 8 -76 -11
-39 -18 -41 -18 -63 0 -27 22 -38 17 -56 -24 -11 -27 -11 -33 4 -45 18 -15 25
-16 -84 12 -27 7 -67 20 -89 29 -21 10 -53 17 -70 17 -17 0 -38 5 -46 10 -32
20 85 9 155 -15 18 -6 18 -5 3 5 -11 7 -18 24 -18 44 0 58 -11 94 -40 125 -15
17 -35 31 -44 31 -14 0 -11 -6 12 -30 20 -19 34 -47 41 -80 15 -70 15 -71 -15
-60 -14 6 -63 10 -108 10 -71 0 -87 3 -112 22 -15 13 -25 17 -20 10 5 -9 -10
-12 -64 -12 -62 0 -71 2 -66 16 3 9 6 18 6 20 0 3 12 9 26 14 25 10 61 -1 74
-21 7 -10 50 0 50 11 0 4 -12 10 -27 13 -16 3 -62 31 -102 63 -85 64 -107 74
-174 84 l-47 6 22 -23z m125 -33 c64 -32 97 -60 72 -60 -22 0 -133 55 -148 73
-22 27 6 22 76 -13z m-580 -213 c46 -29 62 -49 45 -55 -6 -2 -9 -9 -6 -16 8
-21 -57 -27 -78 -9 -10 9 -15 20 -12 24 3 5 0 9 -6 9 -6 0 -9 4 -6 9 4 5 0 12
-6 14 -9 4 -9 8 -3 14 13 10 17 33 7 33 -8 0 -32 43 -32 57 0 3 12 -8 28 -24
15 -16 46 -41 69 -56z m-2267 28 c10 -12 10 -15 -4 -15 -9 0 -16 7 -16 15 0 8
2 15 4 15 2 0 9 -7 16 -15z m56 -122 c-6 -6 -31 42 -40 77 -4 14 5 3 19 -23
15 -27 24 -51 21 -54z m3444 78 c0 -5 -7 -11 -15 -15 -15 -5 -20 5 -8 17 9 10
23 9 23 -2z m-1632 -13 c-3 -7 -19 -14 -36 -16 -18 -2 -32 -7 -32 -13 0 -5
-12 -9 -27 -9 -22 0 -25 -2 -13 -10 13 -9 13 -11 0 -20 -8 -5 -21 -10 -28 -10
-7 0 -21 -6 -32 -12 -17 -11 -23 -9 -42 11 -13 13 -18 21 -11 17 12 -6 27 10
28 29 0 6 13 9 29 7 16 -2 36 4 47 14 10 9 19 12 19 6 0 -6 -6 -13 -12 -15 -9
-4 -10 -6 -1 -6 6 -1 18 5 25 12 7 8 19 12 25 10 7 -3 20 0 30 6 24 14 36 14
31 -1z m-148 -8 c0 -5 -5 -10 -11 -10 -5 0 -7 5 -4 10 3 6 8 10 11 10 2 0 4
-4 4 -10z m1632 -42 l57 2 -4 -38 c-1 -20 -3 -59 -4 -86 l-1 -49 -67 7 c-38 3
-99 9 -138 12 -38 4 -72 8 -74 10 -9 8 30 52 58 64 17 7 31 19 31 26 0 20 -34
17 -54 -4 -17 -20 -94 -47 -104 -38 -7 7 24 33 56 46 14 6 22 17 20 27 -4 23
47 34 117 25 28 -3 76 -5 107 -4z m158 -4 c0 -3 -12 -21 -27 -40 -16 -22 -29
-31 -33 -24 -11 18 1 59 19 63 25 7 41 8 41 1z m-556 -22 c2 -4 -1 -24 -7 -45
-9 -27 -16 -36 -27 -31 -8 3 -39 9 -67 13 -53 8 -83 21 -47 21 11 0 28 6 39
14 39 26 100 42 109 28z m86 3 c0 -5 -55 -35 -64 -35 -13 0 7 29 22 33 25 7
42 8 42 2z m-689 -92 c0 -5 2 -16 4 -25 3 -15 0 -16 -16 -8 -20 11 -24 22 -12
33 9 9 23 9 24 0z m84 -13 c3 -5 -1 -10 -9 -10 -9 0 -16 5 -16 10 0 6 4 10 9
10 6 0 13 -4 16 -10z m655 0 c0 -5 -4 -10 -10 -10 -5 0 -10 5 -10 10 0 6 5 10
10 10 6 0 10 -4 10 -10z m-776 -43 c7 -7 11 -18 9 -24 -3 -7 5 -22 17 -35 25
-27 35 -61 25 -85 -6 -16 -8 -16 -25 5 -11 13 -16 30 -13 38 3 8 -1 24 -9 37
-17 25 -32 77 -22 77 3 0 11 -6 18 -13z m130 -2 c3 -8 1 -15 -3 -15 -5 0 -11
7 -15 15 -3 8 -1 15 3 15 5 0 11 -7 15 -15z m-886 -53 c2 -7 -3 -12 -12 -12
-9 0 -16 7 -16 16 0 17 22 14 28 -4z m834 -7 c6 -28 -6 -34 -16 -9 -8 22 -7
34 3 34 5 0 11 -11 13 -25z m311 -4 c38 -11 95 -23 128 -27 49 -5 59 -10 59
-25 0 -21 -2 -21 -110 8 -69 18 -190 63 -190 70 0 6 20 2 113 -26z m-53 -36
c58 -18 130 -39 160 -45 30 -7 98 -30 150 -51 52 -21 154 -56 225 -78 132 -42
164 -55 154 -66 -4 -3 -42 5 -85 19 -48 14 -106 24 -149 25 -60 1 -81 6 -150
40 -44 22 -106 47 -138 56 -32 9 -70 23 -85 31 -15 8 -37 14 -48 14 -12 0 -40
6 -62 14 -23 8 -64 14 -93 14 -54 -2 -69 9 -69 50 0 21 3 22 43 16 23 -4 89
-21 147 -39z m-1147 -14 c9 -9 -30 -71 -45 -71 -13 0 -40 61 -34 77 5 11 15
14 38 9 18 -3 36 -10 41 -15z m620 -20 c12 -2 8 -19 -9 -35 -13 -13 -13 -16
-1 -16 8 0 20 7 27 15 18 22 45 18 63 -7 13 -19 16 -20 16 -5 1 21 20 22 28 1
9 -24 -17 -35 -65 -28 -38 6 -43 4 -40 -11 2 -10 -3 -20 -9 -22 -7 -3 -13 0
-13 6 0 6 -7 11 -15 11 -22 0 -18 -19 7 -40 21 -17 22 -18 4 -44 -11 -18 -21
-24 -29 -18 -7 4 -31 15 -55 22 -24 7 -48 22 -53 32 -6 11 -21 18 -39 18 -17
0 -30 4 -30 8 0 12 57 31 67 22 14 -13 57 -18 78 -10 18 6 17 9 -13 27 -20 12
-29 24 -23 27 6 4 11 18 11 31 0 25 11 27 93 16z m279 -40 c-3 -22 -9 -29 -23
-28 -27 2 -24 36 4 47 12 5 22 9 23 9 0 1 -1 -12 -4 -28z m-412 -1 c0 -19 -11
-26 -23 -14 -8 8 3 34 14 34 5 0 9 -9 9 -20z m469 -6 c2 -2 2 -7 -2 -10 -3 -3
-16 2 -29 11 l-23 17 25 -7 c14 -4 27 -9 29 -11z m148 -10 c-3 -3 -12 -4 -19
-1 -8 3 -5 6 6 6 11 1 17 -2 13 -5z m-708 -27 c13 5 14 3 3 -8 -10 -11 -15
-10 -27 4 -8 9 -10 13 -4 8 6 -5 19 -7 28 -4z m866 3 l20 -9 -20 0 c-11 0 -27
4 -35 9 -13 9 -13 10 0 9 8 0 24 -4 35 -9z m-161 -14 c20 -24 91 -45 180 -52
69 -5 94 -12 119 -30 18 -13 59 -42 92 -63 33 -22 74 -51 91 -65 33 -27 50
-34 39 -16 -10 17 1 12 93 -36 84 -44 178 -111 169 -121 -13 -13 -217 103
-238 136 -7 11 -12 12 -15 4 -4 -9 -18 -4 -47 14 -23 15 -76 41 -117 59 -51
23 -75 39 -76 51 -1 10 -2 24 -3 31 -2 24 -20 11 -23 -17 l-3 -29 -68 18 c-37
10 -74 23 -82 30 -26 21 -28 3 -4 -29 20 -28 199 -182 220 -189 14 -6 11 -32
-4 -32 -7 0 -69 50 -138 111 -68 62 -151 132 -184 157 -33 25 -50 42 -37 38
62 -17 66 -17 30 7 -21 13 -35 27 -31 30 10 11 25 8 37 -7z m70 -147 c70 -58
88 -79 69 -79 -5 0 -28 16 -52 35 -24 19 -54 35 -66 35 -23 0 -70 42 -59 53 4
4 -2 9 -12 13 -50 16 -93 38 -88 45 2 4 -5 13 -16 19 -11 6 -20 14 -20 19 0
19 174 -81 244 -140z m36 141 c12 -8 12 -10 -5 -10 -11 0 -27 5 -35 10 -12 8
-12 10 5 10 11 0 27 -5 35 -10z m-300 -26 c0 -8 -4 -12 -10 -9 -5 3 -10 10
-10 16 0 5 5 9 10 9 6 0 10 -7 10 -16z m-2155 -61 c14 -31 24 -64 23 -73 -2
-8 -15 18 -29 58 -15 39 -25 72 -22 72 2 0 15 -26 28 -57z m2185 8 c0 -5 6
-16 13 -23 27 -29 217 -290 217 -299 0 -20 -56 30 -95 85 -36 50 -69 76 -81
64 -8 -9 161 -176 185 -183 23 -7 58 -41 90 -89 12 -17 9 -17 -15 4 -16 14
-31 27 -34 30 -3 3 -36 32 -75 64 -108 92 -143 127 -178 176 -17 25 -37 51
-44 58 -14 14 -17 62 -7 100 6 21 24 31 24 13z m-280 -21 c0 -5 -5 -10 -11
-10 -5 0 -7 5 -4 10 3 6 8 10 11 10 2 0 4 -4 4 -10z m396 -69 c-3 -4 8 -22 25
-39 25 -26 27 -30 9 -25 -23 6 -55 47 -47 61 3 4 1 14 -4 22 -8 12 -12 12 -16
2 -4 -10 -8 -9 -18 4 -9 13 -10 23 -2 35 10 16 13 14 34 -17 13 -19 22 -38 19
-43z m-696 22 c0 -10 -6 -10 -25 3 -28 18 -32 30 -12 37 14 5 37 -20 37 -40z
m213 20 c-2 -7 -4 -19 -5 -25 -2 -7 3 -12 10 -10 17 3 15 -8 -5 -30 -13 -15
-14 -22 -4 -44 10 -23 9 -30 -9 -49 -12 -13 -17 -26 -12 -29 13 -7 21 -76 10
-82 -4 -3 -8 6 -8 19 0 13 -14 52 -31 88 -21 41 -32 79 -32 107 0 26 -4 38 -9
30 -6 -10 -8 -10 -8 1 0 8 8 20 18 27 21 17 88 14 85 -3z m1312 7 c3 -5 2 -10
-4 -10 -5 0 -13 5 -16 10 -3 6 -2 10 4 10 5 0 13 -4 16 -10z m-545 -20 c73
-10 156 -54 206 -110 47 -52 225 -284 242 -317 13 -23 -2 -44 -18 -27 -4 5
-48 57 -98 115 -63 74 -110 118 -155 147 -35 22 -98 70 -140 105 -42 36 -89
75 -104 87 -19 15 -22 19 -8 14 11 -4 45 -10 75 -14z m-477 -114 c15 -21 27
-53 28 -70 0 -17 3 -25 6 -18 7 19 21 14 28 -10 4 -13 29 -68 56 -123 l50
-100 -45 50 c-25 28 -50 61 -55 75 -9 26 -21 61 -23 70 -1 3 -8 11 -15 18 -7
7 -13 19 -13 26 0 8 -7 19 -15 26 -8 7 -15 20 -15 29 0 9 -11 37 -23 62 -19
36 -22 51 -14 70 10 22 11 21 17 -21 3 -25 18 -63 33 -84z m248 73 c84 -27
148 -64 160 -94 7 -16 19 -38 27 -47 13 -16 12 -17 -7 -13 -21 4 -21 3 -4 -20
10 -12 21 -21 26 -18 8 5 22 -25 15 -33 -3 -2 -26 15 -51 38 -43 38 -45 42
-29 55 15 13 15 13 -6 3 -18 -9 -28 -7 -50 8 -38 27 -59 53 -64 77 -2 11 -10
20 -18 20 -19 1 -40 14 -40 26 0 11 0 11 41 -2z m-221 -15 c0 -8 -4 -12 -10
-9 -5 3 -10 10 -10 16 0 5 5 9 10 9 6 0 10 -7 10 -16z m-890 -13 c0 -11 -69
-20 -76 -10 -2 4 2 10 8 12 22 9 68 7 68 -2z m431 -24 c-8 -8 -11 -7 -11 4 0
20 13 34 18 19 3 -7 -1 -17 -7 -23z m49 5 c0 -16 3 -32 7 -36 17 -16 43 -104
43 -141 -1 -22 -9 -55 -19 -73 -14 -28 -19 -31 -29 -19 -10 11 -9 23 4 53 20
47 13 112 -15 152 -14 19 -18 37 -14 60 6 39 23 42 23 4z m-80 -8 c0 -8 -5
-12 -10 -9 -6 4 -8 11 -5 16 9 14 15 11 15 -7z m-1567 -47 c20 -63 21 -77 6
-77 -5 0 -8 4 -5 9 3 5 -3 29 -14 52 -21 47 -25 69 -12 69 5 0 16 -24 25 -53z
m2902 -50 c128 -73 166 -114 140 -154 -9 -12 -21 -46 -29 -75 l-13 -53 -21 41
c-13 26 -19 53 -17 74 5 35 -10 31 -17 -5 -2 -14 -18 1 -63 64 -33 45 -76 103
-96 129 -19 26 -39 53 -43 60 -9 15 -15 18 159 -81z m-773 41 c13 -18 46 -69
73 -113 28 -44 70 -104 93 -133 23 -30 42 -58 42 -62 0 -5 -12 -8 -27 -7 -24
2 -28 -2 -26 -20 2 -13 1 -23 -1 -23 -5 0 -86 129 -86 137 0 4 -8 16 -19 27
-10 12 -28 48 -40 81 -12 33 -31 75 -42 93 -10 18 -19 37 -19 43 0 20 30 7 52
-23z m449 -77 c102 -106 195 -209 234 -258 11 -14 37 -46 57 -71 21 -25 35
-48 33 -50 -2 -3 -29 20 -60 49 -31 30 -76 66 -100 81 -49 31 -79 68 -66 81
15 15 1 40 -14 27 -9 -8 -17 -3 -30 17 -10 16 -42 53 -71 83 -53 55 -114 150
-96 150 5 0 56 -49 113 -109z m-1021 89 c0 -5 -4 -10 -10 -10 -5 0 -10 5 -10
10 0 6 5 10 10 10 6 0 10 -4 10 -10z m778 -39 c73 -63 311 -253 391 -310 34
-24 61 -50 61 -57 0 -7 23 -32 52 -56 28 -23 60 -51 70 -60 20 -20 24 -43 8
-53 -5 -3 -10 -14 -10 -23 0 -34 -14 -43 -48 -31 -33 11 -38 23 -23 48 15 23
-6 50 -52 71 -32 14 -37 19 -19 19 25 1 28 18 8 47 -14 19 -15 19 -44 -3 -25
-19 -34 -20 -73 -11 -68 16 -69 17 -69 27 0 6 7 8 17 4 22 -9 -15 44 -83 118
-50 54 -52 57 -47 102 5 38 3 47 -10 47 -10 0 -17 -11 -19 -30 -3 -30 -6 -27
-73 61 -38 51 -78 103 -88 116 -29 37 -10 27 51 -26z m382 -61 c10 -5 37 -33
61 -62 l44 -53 -50 41 c-80 67 -106 101 -55 74z m-354 -123 c29 -23 82 -75
119 -114 l67 -73 -36 0 c-24 0 -39 5 -42 15 -4 9 -14 14 -23 13 -9 -2 -15 3
-13 10 5 25 -26 11 -38 -18 -20 -48 -34 -53 -54 -20 -17 30 -15 34 21 29 3 0
10 6 15 15 9 16 -5 41 -103 175 -49 68 -50 82 -1 42 20 -18 60 -51 88 -74z
m-622 48 c-5 -28 -3 -35 7 -33 8 2 17 14 20 28 6 21 7 20 7 -10 1 -37 -16 -92
-17 -58 -1 12 -6 15 -17 11 -9 -3 -11 -9 -6 -12 6 -4 -2 -51 -19 -121 -15 -63
-28 -124 -29 -135 0 -11 -9 -28 -20 -38 -25 -21 -30 -21 -30 1 0 13 -2 14 -9
4 -6 -10 -10 -10 -19 1 -9 11 -6 19 14 38 14 13 35 42 46 64 20 38 20 39 2 25
-10 -8 -27 -22 -37 -32 -26 -26 -34 -22 -29 13 4 26 8 30 29 26 13 -2 21 -2
19 1 -3 2 4 22 14 43 11 21 20 51 20 67 0 52 37 152 57 152 2 0 1 -16 -3 -35z
m826 -5 c49 -51 54 -63 12 -31 -23 18 -48 43 -54 54 -11 21 -10 21 8 7 10 -8
26 -21 34 -30z m-2550 10 c9 -16 8 -20 -5 -20 -8 0 -15 9 -15 20 0 11 2 20 5
20 2 0 9 -9 15 -20z m40 -61 c0 -5 -4 -9 -10 -9 -5 0 -10 7 -10 16 0 8 5 12
10 9 6 -3 10 -10 10 -16z m1270 -11 c0 -11 -28 -10 -35 1 -3 6 4 9 15 8 11 -1
20 -5 20 -9z m304 6 c27 -10 18 -20 -19 -20 -34 0 -42 6 -28 19 8 9 27 9 47 1z
m38 -81 c-10 -28 -10 -28 -11 12 -1 28 2 36 10 28 8 -8 8 -19 1 -40z m-1622
-1 c0 -10 5 -23 10 -28 6 -6 15 -69 20 -140 9 -125 19 -216 40 -374 13 -105
44 -215 86 -310 19 -45 37 -93 38 -106 2 -13 6 -27 9 -31 4 -3 7 -15 7 -25 0
-10 4 -18 8 -18 10 0 41 -71 72 -165 13 -38 29 -84 37 -102 7 -17 10 -39 6
-49 -5 -13 -3 -15 7 -9 10 6 12 4 7 -8 -3 -9 -2 -19 3 -22 6 -4 10 -22 10 -41
0 -19 4 -33 8 -30 4 2 8 -3 8 -12 0 -9 4 -27 8 -39 5 -14 3 -23 -3 -23 -6 0
-11 5 -11 10 0 6 -6 10 -13 10 -15 0 -51 69 -62 120 -4 19 -18 56 -31 81 -13
26 -20 49 -17 52 5 6 -2 24 -49 126 -12 24 -22 67 -23 95 -1 29 -8 62 -14 74
-6 11 -8 28 -4 38 5 13 3 15 -7 9 -8 -5 -11 -4 -7 3 10 15 -4 44 -18 38 -7 -2
-18 1 -24 7 -17 17 -14 -28 4 -64 9 -16 13 -34 9 -40 -8 -14 -37 51 -54 121
-7 30 -24 95 -38 144 -18 67 -21 90 -12 96 9 6 9 13 -1 31 -7 13 -14 53 -15
89 -1 36 -7 108 -13 160 -12 105 -15 333 -4 343 12 13 23 7 23 -11z m1727 -19
c-3 -10 -5 -4 -5 12 0 17 2 24 5 18 2 -7 2 -21 0 -30z m-897 -2 c13 -25 13
-34 0 -26 -5 3 -10 1 -10 -5 0 -7 8 -9 20 -5 11 4 20 2 20 -4 0 -16 -32 -13
-58 5 -24 17 -29 40 -9 47 21 9 26 7 37 -12z m1366 -13 c4 -13 18 -38 32 -55
13 -18 20 -33 16 -33 -9 0 -74 90 -74 103 0 17 19 5 26 -15z m-1306 -8 c8 -5
11 -10 5 -10 -5 0 -17 5 -25 10 -8 5 -10 10 -5 10 6 0 17 -5 25 -10z m814 -87
c7 3 16 -9 22 -28 9 -30 7 -38 -30 -94 -42 -63 -59 -75 -31 -22 8 17 12 31 7
31 -5 0 -16 -15 -24 -32 l-16 -33 5 40 c2 22 8 49 13 60 16 39 30 88 32 114 1
21 2 19 5 -7 3 -21 9 -32 17 -29z m186 47 c0 -5 -5 -10 -11 -10 -5 0 -7 5 -4
10 3 6 8 10 11 10 2 0 4 -4 4 -10z m486 -25 c0 -14 -4 -25 -9 -25 -15 0 25
-48 46 -55 21 -7 20 -8 -7 -12 -28 -4 -50 12 -40 29 3 5 0 7 -8 6 -16 -4 -16
7 1 50 16 39 19 40 17 7z m-1451 -14 c76 -20 94 -44 38 -49 -19 -2 -33 1 -33
7 0 6 -18 11 -41 11 -24 0 -38 -4 -34 -10 3 -5 3 -10 -2 -11 -4 0 -16 -2 -25
-4 -22 -4 -30 19 -18 50 11 30 23 30 115 6z m570 9 c3 -5 13 -6 23 -3 11 4 7
-6 -13 -28 -16 -19 -33 -35 -37 -37 -5 -2 -8 -9 -8 -15 0 -8 4 -7 12 1 11 11
58 17 58 8 0 -13 -13 -36 -21 -36 -4 0 -6 7 -3 15 8 20 1 19 -38 -5 -18 -11
-39 -20 -47 -20 -8 0 -20 -8 -28 -17 -8 -10 -12 -13 -9 -6 13 25 -18 26 -38 1
-27 -33 -80 -58 -97 -47 -8 5 -9 9 -4 10 24 3 31 6 58 19 15 7 27 17 27 21 0
4 15 17 33 28 18 11 51 43 73 70 40 52 49 58 59 41z m1536 -44 c-6 -14 -15
-26 -21 -26 -14 0 -13 7 6 36 21 31 28 26 15 -10z m-1235 -81 c-9 -11 -36 -16
-36 -8 0 2 8 15 17 30 15 23 18 24 23 7 4 -10 2 -23 -4 -29z m1318 -1 c34 -4
55 -11 53 -18 -2 -6 -33 -20 -69 -31 -36 -11 -74 -30 -85 -41 -16 -19 -70 -44
-94 -44 -8 0 28 70 42 80 3 3 9 23 13 45 11 56 14 58 50 36 18 -11 58 -23 90
-27z m-1150 15 c-6 -11 -24 -2 -24 11 0 5 7 7 15 4 8 -4 12 -10 9 -15z m38
-24 c0 -5 -5 -11 -11 -13 -6 -2 -11 4 -11 13 0 9 5 15 11 13 6 -2 11 -8 11
-13z m-493 -31 c-12 -15 -12 -16 7 -10 43 13 38 -51 -6 -74 -24 -13 -40 -13
-40 0 0 6 4 10 10 10 12 0 50 32 50 41 0 11 -26 5 -44 -10 -30 -25 -29 -2 0
32 16 19 31 32 33 31 2 -2 -2 -11 -10 -20z m71 -35 c-15 -34 -20 -38 -20 -21
0 25 33 89 38 74 1 -5 -6 -29 -18 -53z m480 51 c-8 -5 -19 -10 -25 -10 -5 0
-3 5 5 10 8 5 20 10 25 10 6 0 3 -5 -5 -10z m-447 -28 c-3 -12 -9 -22 -14 -22
-5 0 -3 11 3 25 13 30 20 28 11 -3z m1317 13 c0 -14 -33 -75 -40 -75 -11 0
-14 49 -4 73 4 12 44 14 44 2z m-1195 -22 c-4 -10 -12 -33 -17 -52 -7 -24 -13
-30 -21 -22 -8 8 -8 17 0 33 6 13 14 31 17 41 3 9 10 17 17 17 7 0 8 -7 4 -17z
m-425 -13 c0 -5 -4 -10 -10 -10 -5 0 -10 5 -10 10 0 6 5 10 10 10 6 0 10 -4
10 -10z m-325 -48 c-3 -3 -11 0 -18 7 -9 10 -8 11 6 5 10 -3 15 -9 12 -12z
m452 -15 c-3 -7 2 -29 12 -48 12 -25 21 -34 36 -31 15 2 17 1 6 -6 -9 -6 -10
-12 -2 -16 5 -4 9 -20 8 -35 -2 -29 -17 -33 -17 -5 0 8 -10 14 -24 14 -14 0
-30 10 -40 25 -9 14 -23 25 -30 25 -13 0 -26 20 -26 41 0 5 7 9 15 9 8 0 20 9
27 20 14 22 43 28 35 7z m128 -52 c-19 -28 -25 -33 -25 -18 0 19 38 68 46 60
3 -3 -6 -22 -21 -42z m125 20 c0 -14 -4 -25 -10 -25 -11 0 -14 33 -3 43 11 11
13 8 13 -18z m-765 -25 c3 -5 1 -10 -4 -10 -6 0 -11 5 -11 10 0 6 2 10 4 10 3
0 8 -4 11 -10z m715 -22 c0 -13 -5 -30 -10 -38 -7 -11 -10 -5 -10 23 0 20 5
37 10 37 6 0 10 -10 10 -22z m-329 -41 c-8 -8 -11 -7 -11 4 0 20 13 34 18 19
3 -7 -1 -17 -7 -23z m223 -26 c11 -4 15 -10 9 -14 -5 -3 -19 0 -29 8 -20 15
-11 18 20 6z m135 -14 c12 -15 5 -27 -16 -27 -7 0 -13 9 -13 20 0 23 13 26 29
7z m-83 -43 c2 -29 2 -29 -3 -1 -5 31 -23 37 -23 7 0 -11 -3 -20 -7 -20 -11 1
-43 26 -43 34 0 12 30 6 30 -6 0 -7 5 -5 11 5 15 26 34 16 35 -19z m144 18 c0
-13 -12 -22 -22 -16 -10 6 -1 24 13 24 5 0 9 -4 9 -8z m-492 -37 c-6 -13 -15
-22 -19 -19 -11 6 8 44 21 44 6 0 5 -10 -2 -25z m402 -22 c0 -5 -4 -15 -10
-23 -11 -18 -25 -7 -17 15 6 15 27 21 27 8z m-365 -51 c-3 -3 -11 0 -18 7 -9
10 -8 11 6 5 10 -3 15 -9 12 -12z m169 -61 c9 -11 8 -13 -4 -9 -8 2 -16 18
-17 34 -1 18 0 22 4 9 3 -11 10 -26 17 -34z m211 30 c0 -23 -22 -24 -28 -1 -4
16 -1 20 11 18 9 -2 17 -10 17 -17z m-405 -6 c-7 -9 -10 -25 -6 -41 5 -20 4
-25 -7 -21 -15 6 -41 -29 -28 -38 14 -8 1 -44 -20 -55 -10 -6 -21 -19 -24 -30
-12 -36 -28 -22 -20 18 12 65 81 182 109 182 5 0 3 -7 -4 -15z m210 -90 c0
-13 -10 -33 -22 -45 -22 -20 -41 -19 -20 2 7 7 12 18 12 26 0 9 -9 4 -21 -12
-25 -31 -36 -28 -18 5 15 28 51 59 61 52 5 -2 8 -15 8 -28z m197 -57 c-3 -8
-6 -5 -6 6 -1 11 2 17 5 13 3 -3 4 -12 1 -19z m-177 5 c-1 -14 -30 -47 -36
-41 -8 8 14 48 26 48 6 0 10 -3 10 -7z m58 -15 c18 -18 14 -53 -14 -121 -24
-57 -62 -112 -71 -103 -3 2 5 23 17 45 11 23 25 65 30 93 6 29 16 56 23 60 9
6 9 8 0 8 -7 0 -13 7 -13 15 0 18 12 19 28 3z m-38 -8 c0 -5 -4 -10 -10 -10
-5 0 -10 5 -10 10 0 6 5 10 10 10 6 0 10 -4 10 -10z m100 -21 c0 -24 -23 -21
-28 4 -2 10 3 17 12 17 10 0 16 -9 16 -21z m-168 -59 c-5 -13 -11 -19 -14 -14
-3 5 -1 20 4 34 13 31 22 12 10 -20z m28 -23 c0 -18 -7 -42 -15 -53 -15 -18
-15 -16 -9 26 10 68 24 84 24 27z m-300 -35 c0 -10 6 -27 14 -37 8 -11 11 -26
8 -34 -3 -9 -1 -12 6 -7 7 4 10 17 6 31 -8 33 12 40 22 7 4 -15 6 -31 5 -36
-1 -4 4 -14 10 -22 9 -11 7 -14 -9 -14 -11 0 -23 6 -25 13 -3 6 -4 -4 -2 -23
2 -19 9 -36 15 -38 6 -2 17 -10 25 -19 13 -13 15 -12 17 4 0 10 2 23 3 28 2 6
3 14 4 19 0 5 10 1 21 -9 20 -18 20 -17 20 18 0 44 18 49 27 7 3 -16 12 -30
19 -30 17 0 18 -12 2 -28 -8 -8 -5 -14 15 -21 48 -19 27 -41 -39 -41 -24 0
-34 -5 -34 -15 0 -16 27 -21 89 -16 44 3 37 -21 -10 -31 -23 -4 -41 -2 -56 7
-56 37 -94 54 -107 49 -19 -7 -29 11 -21 37 4 12 12 18 21 15 8 -3 14 -1 14 4
0 5 -8 11 -18 15 -24 7 -39 39 -47 101 -4 27 -9 57 -12 67 -2 9 0 17 6 17 6 0
11 -8 11 -18z m-1030 -13 c0 -6 -4 -7 -10 -4 -5 3 -10 11 -10 16 0 6 5 7 10 4
6 -3 10 -11 10 -16z m37 -81 c9 -10 14 -18 10 -18 -3 0 1 -25 8 -56 7 -31 9
-52 5 -47 -4 4 -13 30 -19 57 -7 27 -19 58 -27 70 -7 11 -14 30 -13 41 0 17 2
17 10 -5 6 -13 17 -33 26 -42z m1110 26 c-3 -3 -12 -4 -19 -1 -8 3 -5 6 6 6
11 1 17 -2 13 -5z m240 -51 c-4 -17 -4 -17 -12 0 -4 9 -4 25 0 35 8 16 8 16
12 0 3 -10 3 -26 0 -35z m58 7 c3 -5 1 -10 -4 -10 -6 0 -11 5 -11 10 0 6 2 10
4 10 3 0 8 -4 11 -10z m-420 -109 c-20 -21 -26 -11 -31 55 l-5 59 25 -50 c22
-43 24 -52 11 -64z m468 47 c5 -51 3 -58 -12 -58 -10 0 -24 11 -31 25 -12 23
-12 27 8 41 12 8 22 25 22 36 0 39 7 14 13 -44z m-126 -3 c-4 -25 -2 -47 3
-50 6 -3 10 -15 10 -26 0 -11 -4 -18 -9 -15 -5 4 -7 -2 -4 -13 3 -10 0 -22 -6
-25 -6 -4 -11 0 -11 11 -1 17 -1 17 -14 1 -7 -10 -19 -18 -27 -18 -10 0 -10 3
-1 12 9 9 8 16 -4 29 -9 10 -14 24 -11 31 3 8 6 6 6 -5 1 -14 6 -17 24 -11 29
9 31 10 24 28 -4 9 -13 13 -22 10 -8 -3 -15 -2 -15 4 0 6 -3 18 -7 28 -5 14
-2 16 21 12 21 -4 27 -1 32 18 10 40 17 27 11 -21z m83 35 c0 -5 -4 -10 -9
-10 -6 0 -13 5 -16 10 -3 6 1 10 9 10 9 0 16 -4 16 -10z m-40 -50 c0 -5 -4
-10 -10 -10 -5 0 -10 5 -10 10 0 6 5 10 10 10 6 0 10 -4 10 -10z m48 -112 c-4
-22 -5 -22 -18 4 -11 23 -11 30 1 44 13 16 14 16 17 -4 2 -12 2 -32 0 -44z
m123 21 c14 0 33 -12 47 -29 l23 -29 -28 14 c-34 18 -50 19 -56 3 -3 -7 -6 -2
-6 11 -1 20 -3 21 -16 11 -8 -7 -12 -17 -8 -22 3 -6 0 -9 -8 -6 -9 3 -14 20
-15 47 l-1 42 22 -21 c12 -11 32 -20 46 -21z m-560 17 c0 -3 4 -19 9 -36 5
-16 5 -32 0 -35 -4 -2 -10 9 -14 26 -8 39 -8 64 0 57 3 -4 6 -9 5 -12z m80
-39 c-8 -8 -11 -3 -11 19 1 25 2 27 11 11 8 -14 8 -22 0 -30z m179 -27 c0 -5
-8 -10 -17 -10 -15 0 -16 2 -3 10 19 12 20 12 20 0z m48 -25 c-3 -3 -9 2 -12
12 -6 14 -5 15 5 6 7 -7 10 -15 7 -18z m207 5 c3 -6 -1 -13 -10 -16 -19 -8
-30 0 -20 15 8 14 22 14 30 1z m1050 0 c-3 -5 -13 -10 -21 -10 -8 0 -12 5 -9
10 3 6 13 10 21 10 8 0 12 -4 9 -10z m-1525 -4 c0 -2 -8 -10 -17 -17 -16 -13
-17 -12 -4 4 13 16 21 21 21 13z m520 -20 c0 -7 -7 -19 -15 -26 -12 -10 -15
-9 -15 7 0 11 3 23 7 26 11 12 23 8 23 -7z m-260 -6 c0 -5 -4 -10 -10 -10 -5
0 -10 5 -10 10 0 6 5 10 10 10 6 0 10 -4 10 -10z m1144 -23 c3 -12 3 -24 0
-27 -7 -7 -34 30 -34 47 0 20 27 4 34 -20z m-1271 -17 c-3 -11 -7 -20 -9 -20
-2 0 -4 9 -4 20 0 11 4 20 9 20 5 0 7 -9 4 -20z m93 9 c3 -6 -1 -18 -10 -27
-9 -9 -16 -11 -16 -5 0 6 -3 18 -6 27 -7 18 21 23 32 5z m261 -45 c-9 -10 -38
16 -31 28 4 6 13 4 22 -6 9 -8 13 -19 9 -22z m33 26 c0 -5 -2 -10 -4 -10 -3 0
-8 5 -11 10 -3 6 -1 10 4 10 6 0 11 -4 11 -10z m1170 -52 c0 -13 0 -14 -29 32
l-23 35 26 -28 c14 -15 26 -33 26 -39z m-1391 -2 c-9 -8 -10 -7 -5 7 3 10 7
26 7 35 1 9 4 6 6 -7 3 -13 -1 -28 -8 -35z m-39 29 c0 -8 -4 -15 -9 -15 -13 0
-22 16 -14 24 11 11 23 6 23 -9z m659 -19 c22 -35 72 -63 91 -51 8 5 10 21 7
41 -6 33 -5 34 16 19 12 -8 30 -15 40 -15 10 0 15 -5 12 -10 -3 -6 -17 -7 -31
-4 -37 9 -29 -2 23 -31 34 -18 66 -27 117 -30 38 -3 72 -7 74 -10 10 -9 -5
-15 -46 -20 -51 -5 -62 -11 -62 -35 0 -25 27 -33 60 -17 26 13 115 16 126 4 8
-7 -45 -97 -57 -97 -5 0 -9 -4 -9 -10 0 -30 68 14 70 45 0 6 10 21 21 34 l20
24 22 -23 c12 -12 16 -20 10 -16 -8 4 -14 1 -15 -6 0 -7 -2 -17 -2 -23 -1 -5
-5 -16 -9 -22 -4 -7 -3 -22 3 -33 12 -22 5 -60 -11 -60 -5 0 -4 9 3 20 14 22
2 42 -13 20 -8 -12 -9 -12 -7 4 5 29 -21 31 -32 2 -13 -36 12 -96 41 -96 20 0
21 -4 14 -47 -4 -27 -9 -75 -10 -108 -3 -45 -8 -61 -19 -63 -18 -4 -22 23 -6
33 6 3 10 16 10 27 0 12 -3 18 -7 15 -3 -4 -12 1 -19 11 -11 15 -13 14 -19
-11 -4 -15 -19 -34 -34 -42 -70 -36 -244 -44 -340 -15 l-56 16 1 88 c2 103 12
120 49 86 19 -18 22 -26 13 -32 -18 -11 -6 -10 31 3 35 12 41 38 12 46 -11 3
-22 11 -25 19 -4 11 -2 12 14 4 27 -15 29 -13 26 26 -2 23 -14 46 -34 67 -30
31 -68 114 -57 125 3 3 5 1 5 -5 0 -15 81 -115 88 -109 3 3 -13 32 -35 63 -52
74 -85 148 -88 196 -2 20 -2 37 0 37 2 0 13 -15 24 -34z m-528 7 c13 -16 12
-17 -3 -4 -17 13 -22 21 -14 21 2 0 10 -8 17 -17z m955 2 c19 -14 19 -14 -3
-15 -12 0 -29 3 -38 6 -13 5 -14 8 -3 15 18 12 21 11 44 -6z m-1126 -8 c0 -7
-7 -22 -15 -33 -8 -10 -15 -36 -15 -57 0 -23 -4 -36 -10 -32 -15 9 -12 57 5
79 8 11 15 28 15 38 0 10 5 18 10 18 6 0 10 -6 10 -13z m240 -7 c0 -5 -7 -10
-16 -10 -8 0 -12 5 -9 10 3 6 10 10 16 10 5 0 9 -4 9 -10z m949 -34 c-9 -8
-10 -7 -5 7 3 10 7 24 7 30 1 7 3 4 6 -7 3 -10 -1 -23 -8 -30z m-1131 1 c14
-16 -7 -97 -24 -97 -24 0 -26 22 -5 41 27 26 28 49 1 42 -11 -3 -20 -1 -20 4
0 24 31 31 48 10z m163 3 c28 -16 23 -29 -11 -27 -28 2 -38 15 -23 30 8 9 11
9 34 -3z m461 -45 c3 -13 2 -22 -2 -20 -4 3 -10 16 -12 30 -3 13 -2 22 2 20 4
-3 10 -16 12 -30z m-372 -3 c77 -63 164 -103 309 -142 70 -18 39 -23 -43 -6
-91 19 -130 34 -186 75 -24 17 -49 31 -56 31 -15 0 -74 48 -74 61 0 16 14 10
50 -19z m-1421 -42 c0 -9 -4 -8 -9 5 -5 11 -9 27 -9 35 0 9 4 8 9 -5 5 -11 9
-27 9 -35z m1108 28 c-3 -8 -6 -5 -6 6 -1 11 2 17 5 13 3 -3 4 -12 1 -19z
m-987 -9 c0 -6 -4 -7 -10 -4 -5 3 -10 11 -10 16 0 6 5 7 10 4 6 -3 10 -11 10
-16z m1208 -1 c18 -18 14 -38 -8 -38 -11 0 -20 4 -20 9 0 5 -3 16 -6 25 -7 19
16 22 34 4z m-118 -101 c0 -5 -4 -5 -10 -2 -5 3 -10 1 -10 -6 0 -7 -2 -10 -5
-8 -2 3 -2 15 2 28 4 17 8 19 14 9 5 -7 9 -17 9 -21z m100 24 c0 -13 -24 -31
-42 -31 -17 0 -25 20 -13 32 8 8 55 7 55 -1z m449 3 c36 -7 42 -23 9 -22 -40
0 -68 8 -68 18 0 12 15 12 59 4z m-1644 -14 c3 -5 1 -10 -4 -10 -6 0 -11 5
-11 10 0 6 2 10 4 10 3 0 8 -4 11 -10z m904 -103 c1 -63 -3 -84 -19 -107 -11
-15 -25 -40 -31 -56 -10 -23 -13 -25 -16 -11 -6 24 27 108 39 101 6 -4 5 3 -1
14 -8 15 -8 35 -1 69 5 26 8 57 6 68 -2 11 -1 24 2 29 11 19 21 -31 21 -107z
m117 86 c-10 -10 -19 5 -10 18 6 11 8 11 12 0 2 -7 1 -15 -2 -18z m1372 -3
c10 -17 10 -20 -3 -20 -8 0 -15 2 -15 4 0 2 -3 11 -6 20 -9 23 9 20 24 -4z
m-1244 -45 c-4 -8 -12 -15 -20 -15 -8 0 -14 7 -14 15 0 8 9 15 20 15 13 0 18
-5 14 -15z m1236 5 c0 -5 -5 -10 -11 -10 -5 0 -7 5 -4 10 3 6 8 10 11 10 2 0
4 -4 4 -10z m-1350 -9 c0 -12 -20 -25 -27 -18 -7 7 6 27 18 27 5 0 9 -4 9 -9z
m160 -41 c0 -14 9 -33 20 -43 15 -12 19 -24 14 -42 -4 -15 -2 -25 5 -25 6 0 8
-7 4 -17 -4 -10 -2 -14 4 -10 6 4 18 -4 27 -17 14 -22 14 -25 -1 -30 -10 -4
-32 7 -60 30 -43 35 -79 40 -67 9 3 -8 10 -13 14 -10 5 3 16 -2 25 -12 15 -14
15 -18 3 -22 -12 -5 -13 -18 -2 -91 12 -82 10 -135 -6 -125 -4 2 -10 21 -13
42 -3 21 -11 52 -18 68 -7 17 -22 58 -33 92 -17 51 -24 61 -36 53 -12 -7 -12
-12 -2 -22 6 -6 12 -18 12 -26 0 -9 -7 -6 -19 9 -15 18 -16 27 -7 41 9 15 8
21 -4 28 -12 7 -12 12 -3 21 10 10 18 10 40 -1 16 -8 31 -16 35 -17 13 -6 39
71 35 102 -6 38 11 75 24 54 5 -8 9 -25 9 -39z m-1166 4 c5 -14 4 -15 -9 -4
-17 14 -19 20 -6 20 5 0 12 -7 15 -16z m1097 -8 c-10 -12 -8 -17 9 -26 11 -6
17 -16 14 -22 -10 -16 -45 29 -37 47 3 8 10 15 15 15 6 0 6 -6 -1 -14z m627
-20 c-7 -8 -15 -12 -17 -11 -5 6 10 25 20 25 5 0 4 -6 -3 -14z m-693 -6 c10 0
11 -5 2 -25 -12 -25 -27 -34 -27 -15 0 6 -7 10 -15 10 -15 0 -20 21 -8 34 4 3
13 4 21 1 7 -3 20 -5 27 -5z m-135 -86 c-24 -42 -23 -23 2 49 12 34 13 36 16
14 2 -14 -7 -42 -18 -63z m1372 69 c12 -11 32 -16 54 -15 26 2 35 -1 31 -10
-5 -16 -83 -14 -103 3 -14 12 -19 39 -7 39 3 0 15 -8 25 -17z m-82 -47 c0 -8
-4 -18 -10 -21 -5 -3 -10 3 -10 14 0 12 5 21 10 21 6 0 10 -6 10 -14z m175
-37 c7 -8 -6 -9 -45 -4 -79 10 -101 28 -25 20 33 -3 64 -11 70 -16z m94 -5 c2
-2 -12 -4 -32 -4 -20 0 -37 4 -37 10 0 8 58 3 69 -6z m-1491 -23 c-7 -9 -16
-18 -20 -21 -4 -3 -9 -16 -11 -28 -2 -12 -9 -28 -15 -34 -18 -18 -14 -46 8
-53 11 -4 18 -11 15 -16 -4 -5 1 -9 9 -9 21 0 20 -13 -3 -34 -12 -11 -25 -15
-33 -10 -7 4 -5 -2 5 -13 9 -11 17 -30 17 -44 1 -28 16 -48 48 -67 32 -18 58
-1 66 43 5 26 12 35 26 35 14 0 20 7 21 23 0 21 1 21 8 2 11 -28 -7 -173 -27
-215 -14 -28 -24 -36 -50 -38 -93 -9 -174 197 -143 362 6 33 15 62 20 66 5 3
13 19 17 35 8 34 21 46 41 38 11 -4 11 -8 1 -22z m1229 -77 c-7 -99 -27 -107
-27 -11 0 65 3 77 16 77 14 0 16 -9 11 -66z m-1394 31 c-3 -9 -8 -14 -10 -11
-3 3 -2 9 2 15 9 16 15 13 8 -4z m462 5 c-3 -5 -1 -10 4 -10 6 0 11 -7 11 -15
0 -21 -17 -19 -30 4 -14 26 -13 31 6 31 8 0 12 -4 9 -10z m965 0 c0 -5 -4 -10
-10 -10 -5 0 -10 5 -10 10 0 6 5 10 10 10 6 0 10 -4 10 -10z m-1050 -15 c0 -8
-2 -15 -4 -15 -2 0 -6 7 -10 15 -3 8 -1 15 4 15 6 0 10 -7 10 -15z m-907 -4
c21 -5 41 -12 45 -16 11 -10 -21 -24 -37 -15 -8 4 -27 3 -43 -2 -31 -11 -58 2
-58 28 0 16 36 18 93 5z m1087 -31 c0 -5 -4 -10 -10 -10 -5 0 -10 5 -10 10 0
6 5 10 10 10 6 0 10 -4 10 -10z m965 -10 c15 -7 10 -9 -22 -9 -24 -1 -43 4
-43 9 0 12 37 12 65 0z m-985 -26 c6 -14 14 -22 20 -19 5 3 10 1 10 -6 0 -21
32 -49 57 -49 12 0 23 -4 23 -9 0 -5 3 -16 6 -25 9 -23 -35 -16 -48 8 -6 11
-27 37 -47 59 -43 47 -56 67 -41 67 6 0 15 -12 20 -26z m-948 -68 c17 -43 17
-48 2 -42 -9 3 -23 1 -30 -5 -11 -9 -16 -6 -23 14 -10 26 -37 42 -46 27 -3 -5
-1 -11 4 -15 6 -3 10 -27 9 -53 l-1 -47 -13 38 c-7 21 -20 45 -29 53 -14 14
-13 17 7 33 32 25 81 51 92 48 5 -2 17 -25 28 -51z m23 44 c3 -6 -1 -7 -9 -4
-18 7 -21 14 -7 14 6 0 13 -4 16 -10z m666 -17 c-12 -20 -14 -14 -5 12 4 9 9
14 11 11 3 -2 0 -13 -6 -23z m-59 0 c27 -24 22 -36 -7 -17 -14 9 -25 20 -25
25 0 14 11 11 32 -8z m736 -20 c85 -26 88 -26 217 -15 71 6 141 14 155 17 19
5 21 4 10 -3 -8 -6 -37 -14 -65 -17 -27 -4 -67 -11 -88 -16 -88 -23 -282 2
-322 41 -26 27 -11 26 93 -7z m-563 7 c3 -5 1 -10 -4 -10 -6 0 -11 5 -11 10 0
6 2 10 4 10 3 0 8 -4 11 -10z m83 -19 c21 -11 47 -31 57 -46 11 -15 37 -35 58
-46 20 -11 37 -24 37 -30 0 -11 -39 -48 -51 -49 -4 0 -19 19 -34 43 -16 23
-48 66 -73 95 -24 28 -41 52 -38 52 4 0 24 -9 44 -19z m386 0 c59 -36 188 -63
281 -60 47 2 84 2 82 -1 -1 -3 -16 -33 -32 -67 -31 -64 -42 -71 -105 -65 -8 1
-58 6 -110 11 -71 8 -96 7 -102 -2 -9 -14 102 -45 164 -46 20 -1 39 -5 42 -9
2 -4 -9 -27 -25 -51 -32 -49 -37 -66 -14 -58 8 4 17 1 21 -5 4 -7 3 -8 -4 -4
-8 5 -12 -1 -12 -14 0 -12 5 -18 10 -15 6 3 10 1 10 -6 0 -7 3 -9 7 -6 3 4 12
-1 19 -11 12 -15 13 -14 14 12 0 22 -4 27 -16 22 -10 -4 -14 -1 -12 6 7 21 29
21 35 -1 6 -25 33 -28 33 -3 0 14 2 15 10 2 5 -8 10 -26 10 -39 0 -30 -21 -91
-32 -91 -4 0 -8 -12 -9 -27 0 -16 -9 -53 -19 -83 -11 -30 -18 -45 -16 -33 2
13 0 26 -6 29 -5 3 -7 12 -4 19 2 7 -1 16 -8 18 -7 3 -16 19 -19 36 -4 16 -16
35 -27 41 -31 17 -36 5 -11 -27 14 -17 20 -35 17 -49 -7 -27 2 -56 15 -48 5 3
9 -2 9 -10 0 -15 -51 -58 -82 -69 -10 -3 -20 -1 -24 4 -3 6 -19 9 -34 6 -15
-3 -31 -2 -36 3 -5 4 -44 10 -86 12 -72 3 -77 2 -72 -15 5 -15 2 -18 -14 -13
-11 4 -23 3 -25 -2 -5 -6 -42 -9 -68 -3 -4 0 -9 10 -12 21 -4 17 -1 19 21 14
26 -5 26 -5 8 10 -11 9 -23 16 -28 16 -4 0 -8 23 -8 51 0 45 2 50 15 39 12
-10 15 -10 15 4 0 12 10 9 47 -15 27 -17 49 -25 51 -19 3 8 8 7 18 -1 8 -6 14
-9 14 -5 0 4 10 0 23 -8 38 -24 197 -8 197 20 0 10 -11 14 -37 14 -21 -1 -53
2 -70 6 -28 5 -32 9 -27 30 4 14 2 25 -5 25 -15 2 -23 4 -44 13 -10 5 -26 2
-40 -7 -19 -12 -24 -12 -35 -1 -17 18 -43 18 -36 0 4 -12 -1 -11 -30 2 -41 18
-45 33 -16 62 20 20 45 24 136 20 35 -1 54 3 63 14 21 25 35 18 17 -8 -10 -15
-12 -27 -6 -31 6 -3 10 0 10 8 0 8 7 20 15 27 8 7 15 21 15 32 0 17 -5 20 -30
16 -20 -3 -30 0 -30 9 0 7 -4 13 -10 13 -5 0 -10 7 -10 15 0 9 6 12 15 9 19
-8 19 -5 -5 51 -27 63 -25 134 4 119 6 -4 2 3 -10 15 -20 22 -20 24 -6 87 9
35 18 64 20 64 3 0 19 -9 36 -19z m-1039 -1 c3 -5 2 -10 -4 -10 -5 0 -13 5
-16 10 -3 6 -2 10 4 10 5 0 13 -4 16 -10z m-633 -34 c-3 -25 2 -39 20 -57 24
-23 58 -73 58 -84 0 -12 -18 -2 -56 33 -58 53 -72 140 -24 142 4 0 4 -15 2
-34z m1052 -2 c7 -28 -12 -75 -33 -82 -8 -3 -11 0 -8 6 4 5 0 15 -8 22 -20 16
-19 45 1 69 21 24 40 18 48 -15z m-819 16 c-3 -5 -12 -10 -18 -10 -7 0 -6 4 3
10 19 12 23 12 15 0z m1032 -94 c24 -32 43 -64 43 -71 0 -7 7 -18 15 -25 13
-11 12 -15 -9 -31 -13 -11 -28 -19 -33 -19 -10 0 -43 69 -43 89 0 7 -4 10 -9
6 -17 -10 -31 32 -31 92 1 49 2 55 12 38 7 -11 31 -46 55 -79z m-1234 64 c3
-11 1 -18 -4 -14 -5 3 -9 12 -9 20 0 20 7 17 13 -6z m241 -5 c5 -15 -21 -35
-48 -35 -21 0 -25 23 -7 37 22 17 48 16 55 -2z m1886 5 c18 -11 14 -14 -30
-26 -40 -11 -80 -63 -80 -102 0 -14 12 -39 27 -54 30 -31 18 -36 -27 -13 -26
13 -30 21 -30 56 0 55 33 116 73 133 39 17 48 18 67 6z m-680 -25 c-7 -8 -16
-12 -21 -9 -5 3 -9 0 -9 -7 0 -7 -3 -9 -7 -5 -5 4 1 14 11 22 26 18 42 18 26
-1z m-1546 -84 c8 -25 13 -48 10 -53 -9 -14 -44 -9 -44 6 0 8 -6 16 -14 19
-20 8 -25 54 -8 78 19 27 34 13 56 -50z m2293 32 c-3 -10 -5 -4 -5 12 0 17 2
24 5 18 2 -7 2 -21 0 -30z m-1777 12 c0 -9 6 -12 17 -8 11 4 14 3 9 -5 -4 -7
-1 -12 7 -12 18 0 63 -49 72 -77 3 -13 11 -23 16 -23 5 0 9 -4 9 -10 0 -5 -9
-10 -21 -10 -11 0 -18 -4 -15 -9 4 -5 -3 -7 -14 -4 -33 9 -23 -11 20 -37 22
-14 35 -27 30 -28 -6 -2 -3 -10 7 -17 14 -11 15 -15 4 -28 -9 -12 -19 -14 -37
-6 -14 5 -35 9 -46 9 -19 0 -20 -5 -16 -50 3 -27 1 -50 -4 -50 -5 0 -7 -4 -3
-9 3 -5 1 -12 -5 -16 -5 -3 -10 -17 -10 -31 0 -26 -9 -31 -27 -13 -15 15 -47
3 -40 -15 8 -21 -32 -36 -103 -36 -36 0 -75 0 -87 -1 -12 -1 -32 6 -44 15 -23
16 -23 16 18 16 60 0 103 11 103 25 0 19 -18 22 -76 13 -42 -6 -63 -4 -101 10
-26 11 -57 22 -68 26 -19 7 -19 8 5 21 16 9 31 10 42 4 9 -5 38 -9 64 -9 27 0
54 -6 63 -14 22 -20 100 -24 111 -7 4 8 15 11 25 7 9 -3 27 -3 40 0 22 5 22 7
7 25 -9 10 -22 19 -29 19 -7 0 -32 17 -55 38 -26 23 -43 32 -45 25 -6 -18 -24
-16 -39 5 -12 16 -14 16 -31 -2 -10 -10 -13 -16 -6 -12 7 4 14 -2 18 -14 3
-11 17 -23 30 -26 13 -3 31 -14 41 -25 17 -18 16 -19 -19 -19 -23 0 -39 6 -45
17 -8 13 -22 16 -65 14 -60 -2 -98 19 -77 44 6 7 9 28 8 46 -4 43 21 46 40 6
11 -22 19 -28 35 -23 12 3 27 6 33 6 7 0 14 8 16 18 4 12 15 17 44 17 31 0 41
-5 49 -22 5 -13 16 -23 23 -23 8 0 26 -9 41 -19 33 -24 63 -13 45 16 -13 21
-86 61 -102 55 -7 -2 -12 1 -12 7 0 6 5 11 11 11 6 0 9 7 5 15 -6 17 21 35 44
28 10 -3 11 -2 4 4 -19 14 -25 71 -9 87 8 8 15 20 15 27 0 9 -3 10 -11 2 -6
-6 -20 -8 -31 -5 -16 4 -13 7 18 18 49 17 46 17 42 -3 -3 -23 22 -84 32 -78
13 8 5 56 -11 65 -11 7 -10 13 5 29 22 25 36 27 36 6z m1676 -27 c-14 -11 -26
-26 -26 -34 0 -8 -4 -14 -9 -14 -15 0 0 38 27 67 19 20 27 24 30 14 3 -8 -7
-23 -22 -33z m259 22 c-3 -5 -11 -10 -16 -10 -6 0 -7 5 -4 10 3 6 11 10 16 10
6 0 7 -4 4 -10z m-2359 -50 c0 -23 -11 -27 -19 -6 -3 8 -1 17 6 20 7 2 12 5
12 5 1 1 1 -8 1 -19z m2254 11 c0 -5 -6 -14 -14 -20 -12 -10 -13 -8 -9 8 5 21
23 30 23 12z m-1080 -53 c0 -5 -7 -8 -15 -8 -17 0 -18 2 -9 25 5 13 8 14 15 3
5 -7 9 -16 9 -20z m658 5 c-10 -2 -26 -2 -35 0 -10 3 -2 5 17 5 19 0 27 -2 18
-5z m-1723 -29 c21 -18 24 -24 10 -19 -11 4 -29 7 -40 7 -20 -1 -45 15 -45 29
0 18 46 7 75 -17z m685 -28 c-14 -14 -22 -2 -14 18 5 14 9 15 15 4 4 -7 4 -17
-1 -22z m370 2 c11 -18 20 -35 20 -38 0 -3 -20 -5 -45 -5 -25 0 -45 2 -45 4 0
6 44 71 48 71 1 0 11 -15 22 -32z m-1202 -11 l22 -24 -28 0 c-22 0 -28 5 -30
24 -1 13 2 23 6 23 5 0 18 -10 30 -23z m207 13 c3 -5 1 -10 -4 -10 -6 0 -11 5
-11 10 0 6 2 10 4 10 3 0 8 -4 11 -10z m1889 -32 c11 -10 11 -15 1 -23 -10 -8
-11 -40 -5 -140 5 -100 4 -137 -7 -162 -7 -18 -16 -33 -19 -33 -3 0 -4 55 -2
123 2 67 -1 150 -6 185 -7 54 -6 62 8 62 9 0 23 -6 30 -12z m-1379 -18 c3 -5
2 -10 -4 -10 -5 0 -13 5 -16 10 -3 6 -2 10 4 10 5 0 13 -4 16 -10z m1245 -15
c0 -8 -4 -15 -10 -15 -5 0 -10 7 -10 15 0 8 5 15 10 15 6 0 10 -7 10 -15z
m193 -5 c9 -11 17 -24 17 -29 0 -5 7 -22 15 -37 8 -16 15 -35 15 -43 0 -8 -11
7 -24 32 -14 25 -32 58 -42 72 -19 30 -6 34 19 5z m-2139 -25 c21 -32 20 -35
-8 -35 -23 0 -36 16 -36 46 0 22 26 16 44 -11z m679 -15 c-8 -54 -45 -176 -57
-189 -14 -13 -16 -13 -21 2 -10 25 14 156 33 183 18 25 48 28 45 4z m167 5 c0
-21 -61 -114 -90 -140 -13 -11 -21 -15 -19 -10 60 123 85 165 96 165 7 0 13
-7 13 -15z m-80 1 c0 -3 -4 -8 -10 -11 -5 -3 -10 -1 -10 4 0 6 5 11 10 11 6 0
10 -2 10 -4z m1261 -121 c-6 -34 -11 -89 -11 -123 0 -61 -13 -90 -23 -52 -5
21 5 114 25 235 10 57 13 64 16 36 2 -19 -1 -62 -7 -96z m195 110 c18 -15 18
-15 -5 -13 -14 2 -26 9 -29 16 -5 17 10 15 34 -3z m-679 -11 c-3 -3 -12 -4
-19 -1 -8 3 -5 6 6 6 11 1 17 -2 13 -5z m63 2 c0 -3 -4 -8 -10 -11 -5 -3 -10
-1 -10 4 0 6 5 11 10 11 6 0 10 -2 10 -4z m580 -200 c26 -80 29 -100 18 -107
-7 -5 -17 -9 -23 -9 -18 0 -75 213 -75 278 l1 37 23 -50 c13 -27 38 -94 56
-149z m-2151 149 c11 -11 10 -14 -7 -20 -21 -6 -72 19 -72 36 0 12 62 -1 79
-16z m693 13 c-5 -7 -17 -33 -26 -58 l-17 -45 6 45 c6 45 19 70 37 70 7 0 7
-4 0 -12z m401 -8 c20 -11 49 -20 63 -20 26 0 27 -1 21 -51 -4 -29 -9 -54 -11
-57 -10 -9 -162 -4 -218 7 -63 13 -63 14 -48 58 14 39 58 53 131 42 29 -5 55
-6 57 -4 7 7 -46 25 -74 25 -13 0 -24 5 -24 10 0 17 64 11 103 -10z m96 4 c2
-2 2 -7 -2 -10 -9 -9 -77 5 -77 16 0 8 69 2 79 -6z m61 -14 c-6 -10 -10 -41
-10 -69 0 -45 -2 -51 -21 -51 -20 0 -21 4 -16 48 8 68 23 103 41 96 12 -5 13
-11 6 -24z m83 13 c-18 -7 -16 -23 3 -23 12 0 15 -6 11 -22 -4 -13 -9 -53 -13
-89 -6 -65 -7 -65 -35 -61 -21 3 -29 11 -34 33 -6 28 2 116 14 134 3 6 6 14 6
20 0 5 11 12 25 15 26 7 45 1 23 -7z m1007 5 c57 1 71 -1 57 -9 -17 -10 -165
-8 -209 3 -44 10 -27 19 22 12 30 -4 89 -7 130 -6z m203 -57 c13 -13 -26 -49
-60 -56 -25 -5 -32 -3 -35 12 -6 29 32 64 62 57 14 -3 29 -9 33 -13z m-2603
-1 c0 -5 -4 -10 -10 -10 -5 0 -10 5 -10 10 0 6 5 10 10 10 6 0 10 -4 10 -10z
m-60 -20 c0 -11 9 -29 21 -41 11 -11 19 -22 17 -23 -17 -16 -48 -25 -48 -16 0
13 -43 3 -48 -11 -2 -5 -10 -9 -17 -9 -8 0 -18 -6 -22 -14 -14 -23 -49 -28
-71 -9 -28 24 -39 63 -18 63 19 0 21 11 5 27 -20 20 26 35 85 28 42 -6 56 -4
67 9 19 21 29 20 29 -4z m2420 -16 c0 -15 -30 -34 -54 -34 -21 0 -21 36 0 48
22 12 54 4 54 -14z m-2630 -19 c11 -13 8 -16 -20 -21 -17 -4 -34 -12 -36 -19
-3 -7 -23 -15 -44 -19 -41 -6 -65 -26 -31 -26 10 0 21 5 23 11 2 6 14 1 28
-11 15 -13 20 -24 14 -28 -6 -4 -10 -15 -8 -26 1 -11 -5 -20 -17 -23 -22 -6
-25 -35 -6 -51 7 -6 34 -12 60 -13 42 -2 47 -5 41 -23 -3 -13 -2 -16 3 -9 13
18 63 34 84 28 12 -4 30 2 45 14 28 22 64 28 64 11 0 -5 4 -10 10 -10 5 0 7 7
4 15 -5 11 1 15 20 15 24 0 31 -10 27 -34 -1 -5 1 -22 5 -38 6 -28 8 -30 49
-26 41 3 43 2 65 -40 14 -26 27 -39 32 -34 6 6 3 22 -7 42 -21 41 -16 53 17
36 15 -8 29 -12 31 -10 2 3 2 -7 -1 -22 -5 -26 -4 -27 32 -21 32 5 36 3 36
-16 0 -15 -3 -18 -11 -10 -9 9 -16 9 -31 0 -14 -9 -20 -9 -26 0 -6 9 -12 7
-25 -7 -26 -31 -54 -25 -67 14 -12 37 -37 53 -54 36 -8 -8 -6 -14 7 -21 44
-25 1 -52 -106 -64 -40 -4 -55 -10 -50 -18 5 -9 3 -9 -8 0 -20 16 -59 6 -52
-14 4 -11 0 -14 -18 -11 -32 4 -27 35 12 71 35 32 35 58 -1 68 -41 12 -1 18
48 8 35 -8 37 -6 22 21 -13 24 -89 37 -119 21 -26 -14 -27 -31 -3 -32 11 -1 9
-4 -8 -9 -19 -6 -20 -8 -6 -9 15 -1 16 -4 6 -16 -7 -8 -18 -15 -24 -15 -6 0
-4 5 4 10 13 8 12 10 -2 10 -10 0 -18 5 -18 11 0 5 -4 7 -10 4 -5 -3 -10 -1
-10 5 0 6 -4 9 -9 5 -5 -3 -11 7 -13 22 -4 26 -5 26 -13 8 -5 -11 -15 -26 -22
-33 -11 -11 -13 -9 -13 12 0 24 -38 76 -56 76 -12 1 -54 67 -54 85 0 7 -5 15
-11 17 -9 3 -8 11 1 28 18 34 30 41 65 34 22 -4 38 1 57 15 23 19 63 39 79 40
4 1 12 -6 19 -14z m1154 -37 c-8 -55 -23 -84 -24 -47 0 26 18 89 26 89 2 0 1
-19 -2 -42z m196 -18 c19 -5 49 -12 65 -15 17 -3 40 -8 53 -11 17 -3 22 -11
21 -32 -1 -17 -3 -20 -6 -9 -5 17 -23 24 -23 8 0 -11 -18 -9 -47 7 -12 7 -50
16 -83 21 -57 7 -62 6 -70 -13 -4 -12 -6 -24 -3 -28 2 -5 1 -8 -4 -8 -20 1
-28 19 -31 67 l-3 52 48 -15 c26 -9 64 -20 83 -24z m-967 -7 c21 -15 49 -28
60 -28 44 -3 85 -26 91 -51 4 -14 4 -30 0 -36 -4 -6 -3 -8 3 -5 9 5 33 -39 33
-59 0 -2 -15 3 -33 11 -24 10 -37 11 -44 4 -7 -7 -15 -6 -24 4 -10 11 -21 12
-49 3 -19 -5 -38 -15 -42 -21 -5 -6 -8 -5 -8 3 0 7 -6 12 -12 11 -27 -3 -35 2
-47 27 -9 20 -9 30 0 40 9 11 7 14 -10 14 -30 0 -27 33 5 76 15 19 29 34 32
34 3 0 23 -12 45 -27z m2165 -43 c0 -35 0 -35 -12 10 -7 25 -10 49 -7 54 7 15
20 -25 19 -64z m84 40 c16 0 28 -4 28 -10 0 -5 -11 -10 -24 -10 -14 0 -32 -10
-40 -22 -19 -27 -26 -21 -33 33 l-6 42 24 -16 c13 -10 36 -17 51 -17z m268 16
c0 -8 -17 -16 -46 -20 -65 -9 -79 6 -19 20 67 16 65 16 65 0z m-1953 -38 c-3
-7 -5 -2 -5 12 0 14 2 19 5 13 2 -7 2 -19 0 -25z m50 -10 c-3 -7 -5 -2 -5 12
0 14 2 19 5 13 2 -7 2 -19 0 -25z m1753 22 c-36 -12 -80 -12 -80 0 0 6 24 10
53 9 41 -1 47 -3 27 -9z m-1564 -27 c-10 -10 -19 5 -10 18 6 11 8 11 12 0 2
-7 1 -15 -2 -18z m1114 -192 c5 -11 10 -28 10 -37 0 -16 -3 -15 -20 4 -12 12
-30 22 -40 22 -16 0 -20 7 -20 34 0 19 8 48 18 65 11 20 13 34 7 39 -9 6 -11
29 -5 57 1 6 10 -29 21 -77 10 -49 23 -97 29 -107z m-2200 175 c0 -2 -7 -7
-16 -10 -8 -3 -12 -2 -9 4 6 10 25 14 25 6z m1564 -18 c3 -13 6 -29 6 -35 0
-19 -37 -16 -44 3 -3 8 -10 12 -16 9 -5 -3 -10 3 -10 14 0 35 55 43 64 9z
m754 -17 c-15 -5 -19 4 -11 24 6 18 7 18 13 -1 4 -10 3 -21 -2 -23z m-2248 25
c0 -2 -3 -11 -6 -20 -5 -12 -10 -13 -25 -5 -27 14 -24 29 6 29 14 0 25 -2 25
-4z m2000 -75 c-6 -12 -15 -19 -21 -16 -15 10 -10 33 9 37 24 6 25 3 12 -21z
m-495 -19 c-8 -8 -25 10 -19 20 4 6 9 5 15 -3 4 -7 6 -15 4 -17z m72 11 c5
-14 -25 -12 -31 3 -3 7 2 11 12 10 9 -2 17 -7 19 -13z m70 11 c-3 -3 -12 -4
-19 -1 -8 3 -5 6 6 6 11 1 17 -2 13 -5z m-278 -30 c2 -2 -7 -4 -20 -4 -21 -1
-22 -2 -6 -11 9 -5 17 -14 17 -20 0 -5 8 -22 19 -37 40 -58 182 -318 201 -370
16 -43 18 -57 8 -69 -9 -11 -9 -16 0 -22 9 -5 7 -13 -4 -30 -11 -15 -19 -19
-24 -12 -8 14 -32 15 -72 5 -15 -3 -36 -3 -45 2 -14 6 -8 9 22 13 34 5 40 9
38 29 -4 30 15 28 23 -3 4 -18 13 -25 30 -25 13 0 24 5 24 10 0 6 -5 9 -11 8
-6 -2 -27 35 -48 82 -20 47 -48 105 -62 130 -31 55 -53 56 -114 5 -27 -22 -45
-31 -52 -24 -6 6 -20 -11 -39 -50 -16 -33 -37 -63 -48 -67 -30 -10 0 -29 79
-49 70 -18 105 -35 72 -35 -9 0 -17 -4 -17 -10 0 -5 -17 -12 -37 -15 -21 -3
-50 -12 -64 -19 -24 -12 -27 -11 -45 16 -10 16 -28 31 -40 34 -13 3 -25 19
-32 40 -10 35 -5 43 16 22 9 -9 12 -9 12 1 0 11 3 11 17 0 10 -8 -4 11 -30 40
-27 30 -58 73 -69 95 -20 41 -88 115 -88 98 0 -17 29 -80 40 -87 5 -3 15 -16
21 -28 10 -20 9 -20 -14 3 -15 14 -33 31 -42 38 -8 7 -13 17 -10 23 9 13 -2
11 -35 -6 -16 -8 -33 -23 -39 -32 -5 -10 -13 -14 -17 -10 -5 4 12 25 36 46 32
28 42 42 37 55 -8 20 -13 16 -203 -164 l-81 -77 61 2 c41 2 69 -3 86 -13 18
-12 47 -15 108 -13 62 2 88 -1 100 -12 10 -8 31 -18 47 -22 l30 -7 -25 -20
c-14 -11 -58 -38 -98 -60 -40 -22 -78 -49 -86 -60 -13 -18 -68 -29 -81 -16 -3
3 0 19 6 37 16 46 2 51 -16 6 -9 -20 -25 -40 -36 -42 -11 -3 -18 -11 -16 -18
3 -6 -1 -12 -8 -12 -8 0 -5 18 12 61 33 81 38 100 26 93 -5 -4 -18 -27 -27
-52 -19 -48 -36 -51 -37 -7 0 27 0 27 -11 5 -12 -25 -23 -29 -33 -13 -9 15
-51 12 -65 -5 -7 -8 -21 -15 -31 -15 -20 0 -43 -34 -36 -53 3 -8 -6 -12 -24
-12 -19 0 -31 6 -35 18 -3 9 -10 17 -15 17 -5 0 -9 15 -9 33 0 55 -19 107 -44
119 -31 13 -82 -10 -78 -35 2 -9 -2 -17 -8 -17 -7 0 -5 -7 4 -15 14 -14 13
-19 -4 -48 -11 -18 -20 -45 -20 -61 0 -28 -1 -29 -15 -10 -14 19 -14 19 -15
-3 0 -16 -5 -20 -19 -16 -15 4 -20 -3 -28 -44 l-9 -48 -16 35 c-33 75 -37 99
-24 137 8 23 15 31 18 22 3 -8 5 -17 4 -20 0 -3 6 -14 14 -24 9 -11 10 -16 3
-11 -9 5 -13 0 -13 -13 0 -12 5 -21 10 -21 6 0 10 6 10 13 0 9 3 8 9 -2 10
-15 15 -8 26 34 14 54 14 84 0 79 -7 -3 -13 1 -12 8 2 29 -16 87 -29 92 -8 3
-14 1 -14 -3 0 -5 5 -11 12 -13 8 -3 7 -11 -5 -28 l-17 -24 0 33 c0 45 27 99
59 115 14 8 37 26 50 40 28 30 41 33 41 10 0 -17 -23 -44 -38 -44 -5 0 -17 -9
-27 -20 -10 -11 -15 -20 -11 -20 12 0 120 60 139 78 17 15 81 47 150 73 15 6
27 15 27 19 0 5 -16 2 -35 -6 -42 -17 -69 -18 -38 -1 12 7 21 17 20 22 -1 6
21 21 48 34 28 13 61 30 75 37 82 44 128 64 149 64 31 0 85 17 133 41 20 11
71 24 113 29 42 5 82 13 88 17 7 4 6 0 -2 -10 -7 -9 -20 -17 -29 -17 -8 0 -13
-3 -9 -6 3 -3 -8 -19 -24 -36 -28 -29 -30 -30 -53 -14 -30 19 -38 19 -88 5
-63 -17 -46 -32 32 -27 66 3 68 3 53 -14 -15 -17 -15 -18 0 -18 9 0 25 7 34
14 10 8 41 33 68 56 28 22 69 52 93 66 42 25 44 25 58 7 22 -27 47 -76 36 -69
-5 3 -17 -3 -26 -13 -13 -14 -14 -24 -6 -45 14 -39 14 -39 -32 -32 -24 3 -72
8 -107 11 -35 3 -68 8 -75 11 -6 3 -2 -2 8 -10 11 -9 34 -16 50 -16 17 0 44
-7 60 -15 15 -8 40 -15 55 -15 15 0 33 -6 39 -12 10 -10 15 -10 21 1 7 10 22
12 64 7 44 -6 56 -4 60 8 4 9 3 16 -2 16 -4 0 -29 34 -55 75 -26 41 -61 88
-77 105 l-30 29 25 7 c14 3 23 10 20 15 -4 8 55 1 65 -7z m915 -4 c27 -10 32
-25 17 -49 -16 -24 -75 17 -64 46 6 16 13 16 47 3z m-1094 -19 l25 -7 -22 -12
c-19 -11 -26 -9 -43 8 -18 18 -18 20 -2 19 9 -1 28 -4 42 -8z m230 -1 c10 0
20 -7 23 -14 4 -10 1 -13 -8 -10 -10 4 -12 0 -8 -16 4 -17 8 -19 15 -8 5 8 6
3 2 -14 -4 -18 -2 -28 5 -28 6 0 11 -8 11 -17 0 -14 -4 -12 -17 7 -9 14 -29
40 -45 58 -31 36 -36 57 -12 48 9 -3 24 -6 34 -6z m-340 -10 c-8 -5 -24 -9
-35 -9 -16 1 -16 2 5 9 35 11 48 11 30 0z m540 0 c0 -5 13 -31 28 -57 35 -60
62 -131 62 -163 0 -18 -14 0 -48 62 -26 47 -55 97 -64 110 l-18 23 10 -28 c5
-15 17 -42 26 -60 13 -26 4 -20 -45 31 -34 35 -61 67 -61 72 0 5 12 11 28 13
52 8 82 7 82 -3z m115 -106 c20 -44 36 -81 36 -84 1 -3 7 -20 15 -39 8 -18 11
-37 8 -42 -3 -5 2 -6 11 -3 22 9 8 -24 -16 -36 -15 -9 -20 -5 -28 27 -14 48
-14 56 1 47 8 -5 9 0 4 17 -4 13 -8 30 -10 37 -1 7 -8 18 -14 24 -7 7 -12 15
-12 19 0 5 -16 35 -36 69 -19 33 -32 65 -28 71 9 14 26 -13 69 -107z m1 89
c25 -35 36 -63 25 -63 -7 0 -46 54 -59 83 -9 19 16 4 34 -20z m79 7 c3 -6 -1
-7 -9 -4 -18 7 -21 14 -7 14 6 0 13 -4 16 -10z m725 -46 l25 -27 -43 24 c-24
13 -48 32 -54 42 -9 17 -8 17 19 4 15 -9 39 -27 53 -43z m-3036 -57 c11 -17
22 -24 26 -18 4 7 27 0 66 -20 51 -27 73 -31 162 -36 63 -4 109 -11 120 -20
15 -12 14 -13 -12 -7 -21 5 -27 4 -22 -5 4 -6 3 -11 -1 -11 -5 0 -10 -15 -11
-32 -2 -18 -7 -37 -11 -41 -11 -11 -2 -49 10 -42 4 3 5 13 2 23 -6 15 -5 16
13 2 31 -23 44 -42 44 -66 0 -12 5 -24 11 -26 6 -2 12 -16 12 -31 0 -15 3 -24
8 -21 14 8 11 -10 -3 -25 -11 -10 -9 -11 5 -5 13 5 20 1 24 -14 3 -12 4 -24 3
-28 -1 -3 7 -12 17 -20 17 -13 17 -13 -3 -14 -24 0 -48 24 -59 60 -11 36 -42
62 -65 55 -23 -7 -27 7 -7 24 8 6 13 21 11 33 -1 13 -3 27 -3 31 -1 9 -31 -18
-31 -28 0 -3 6 -3 13 1 9 6 9 4 0 -6 -19 -20 -60 24 -43 45 8 10 7 18 -7 34
-9 12 -21 21 -25 21 -5 0 -24 16 -43 36 -32 33 -74 52 -130 58 -30 3 -75 28
-69 37 3 5 -1 6 -9 3 -15 -5 -41 48 -30 60 4 3 2 6 -3 6 -5 0 -8 19 -5 43 l4
42 11 -35 c6 -19 20 -48 30 -63z m936 34 c0 -11 -4 -10 -13 4 -8 10 -19 15
-25 11 -15 -9 -15 -1 -1 26 11 21 12 21 25 -3 7 -13 13 -30 14 -38z m1814 29
c28 -10 31 -17 17 -38 -5 -9 -17 -11 -34 -6 -20 4 -27 13 -27 30 0 27 7 29 44
14z m213 -52 c-3 -11 0 -18 9 -18 13 0 18 -12 15 -32 0 -4 13 -15 29 -23 17
-9 30 -20 30 -25 0 -14 -64 8 -75 26 -5 10 -18 26 -27 36 -11 10 -18 33 -18
55 0 36 0 36 21 17 11 -10 18 -26 16 -36z m-392 32 c-4 -6 7 -13 24 -16 36 -8
38 -13 12 -43 -12 -13 -22 -18 -26 -11 -3 5 -15 10 -27 10 -14 0 -18 5 -14 16
3 9 6 24 6 35 0 11 7 19 16 19 8 0 12 -5 9 -10z m703 -15 c13 -29 16 -52 5
-41 -5 4 -9 12 -9 17 -1 5 -2 13 -3 18 0 5 -13 14 -28 19 l-28 10 26 1 c18 1
29 -6 37 -24z m-450 -15 c4 0 8 -11 8 -25 1 -14 13 -40 27 -58 31 -41 38 -80
16 -85 -20 -4 -72 91 -76 138 -3 41 7 76 14 48 3 -10 8 -18 11 -18z m307 0 c3
-5 -3 -10 -14 -10 -11 0 -23 5 -26 10 -3 6 3 10 14 10 11 0 23 -4 26 -10z
m-385 -30 c0 -4 -5 -21 -11 -39 -11 -30 -12 -31 -30 -15 -14 13 -16 21 -8 35
5 11 7 19 4 19 -4 0 -4 4 -1 9 7 10 46 3 46 -9z m440 2 c0 -41 -31 -109 -55
-120 -28 -13 -32 -7 -11 17 7 9 21 40 32 69 18 52 34 68 34 34z m60 -36 c0
-18 -7 -48 -16 -67 -20 -41 -64 -102 -70 -96 -8 8 68 207 77 201 5 -3 9 -20 9
-38z m-1370 -18 c0 -5 -9 -4 -20 2 -21 11 -25 22 -13 34 8 7 33 -21 33 -36z
m1420 21 c0 -6 -4 -7 -10 -4 -5 3 -10 11 -10 16 0 6 5 7 10 4 6 -3 10 -11 10
-16z m-739 1 c19 -10 19 -12 3 -39 -9 -15 -38 -42 -65 -60 -27 -17 -49 -38
-49 -46 0 -16 -34 -38 -44 -28 -3 3 -6 1 -6 -5 0 -7 -3 -11 -7 -11 -22 4 -33
-3 -33 -18 0 -15 -2 -16 -10 -3 -5 8 -5 16 -1 18 5 2 6 12 4 23 -5 19 -2 20
33 14 l39 -6 -23 20 -23 20 28 18 c34 22 62 54 63 71 0 7 15 19 33 27 39 17
34 17 58 5z m257 -69 c34 -53 38 -79 21 -132 -16 -45 -16 -45 -39 -18 -17 21
-19 21 -13 4 3 -11 13 -28 20 -37 8 -9 13 -21 10 -25 -3 -5 -7 -35 -8 -66 l-2
-56 -29 17 c-16 9 -50 36 -76 59 l-47 41 18 29 c22 35 81 157 97 201 7 17 13
32 15 32 1 0 16 -22 33 -49z m-114 -13 c18 -14 18 -15 -2 -54 -11 -21 -34 -51
-51 -67 l-31 -27 -30 41 c-35 49 -35 48 -15 96 26 61 32 65 73 43 21 -10 45
-25 56 -32z m265 12 c31 -38 31 -41 16 -69 -8 -17 -15 -41 -15 -56 0 -31 -15
-32 -32 -2 -16 29 -20 167 -4 167 1 0 17 -18 35 -40z m-239 10 c0 -5 -2 -10
-4 -10 -3 0 -8 5 -11 10 -3 6 -1 10 4 10 6 0 11 -4 11 -10z m604 -35 c26 -24
34 -45 17 -45 -5 0 -13 9 -16 21 -6 17 -9 18 -23 7 -13 -11 -15 -10 -9 5 3 9
2 17 -3 17 -6 0 -10 5 -10 10 0 17 16 11 44 -15z m-2630 -16 c39 -11 50 -11
53 -1 7 18 48 15 64 -5 12 -14 12 -17 0 -21 -31 -11 -118 -91 -140 -131 l-24
-43 -23 28 c-13 16 -24 38 -24 49 0 11 -12 47 -25 80 -14 33 -25 62 -25 63 0
8 97 -5 144 -19z m2757 -6 l24 -26 -32 18 c-18 10 -30 22 -27 27 7 11 8 11 35
-19z m-1531 -10 c0 -5 -5 -15 -10 -23 -7 -12 -10 -12 -10 -1 0 7 -6 11 -15 7
-8 -3 -15 -1 -15 3 0 10 17 19 38 20 6 1 12 -2 12 -6z m1100 -20 c-1 -19 -22
-53 -34 -53 -9 0 -7 29 4 51 13 24 30 25 30 2z m158 -47 c-36 -50 -58 -62 -30
-18 30 49 57 80 60 72 2 -5 -12 -29 -30 -54z m332 38 c0 -8 -4 -12 -10 -9 -5
3 -10 13 -10 21 0 8 5 12 10 9 6 -3 10 -13 10 -21z m-2147 -8 c6 -16 -1 -26
-17 -26 -6 0 -4 5 4 10 10 7 11 10 2 10 -7 0 -15 -7 -18 -15 -3 -8 -14 -17
-25 -20 -11 -4 -17 -11 -14 -16 4 -5 -1 -9 -9 -9 -8 0 -18 -5 -22 -12 -4 -7
-3 -8 4 -4 7 4 12 1 12 -8 0 -9 -9 -16 -20 -16 -33 0 -23 20 33 71 57 53 62
55 70 35z m735 -7 c-7 -5 -10 -9 -5 -10 24 -5 33 -4 40 6 4 5 5 -3 1 -20 -4
-23 -3 -26 5 -15 9 12 11 13 11 1 0 -8 7 -22 15 -31 14 -15 13 -19 -7 -36 -19
-17 -21 -17 -15 -2 4 11 2 17 -6 15 -6 -1 -13 9 -15 23 -2 14 -12 34 -21 45
-30 34 -33 44 -10 38 16 -4 17 -8 7 -14z m1330 9 c18 -18 15 -41 -12 -103 -25
-54 -55 -78 -42 -32 4 12 9 45 12 72 9 79 16 89 42 63z m-1602 -32 c-10 -25
-11 -37 -3 -45 8 -8 8 -11 0 -11 -6 0 -14 6 -17 13 -3 8 -11 5 -25 -12 -25
-28 -26 -25 -6 22 12 29 48 67 62 67 2 0 -3 -15 -11 -34z m623 -8 c-12 -18
-24 -35 -26 -37 -2 -2 -3 3 -3 12 0 16 33 57 46 57 3 0 -5 -15 -17 -32z m561
-79 c19 -9 53 -21 75 -27 22 -5 48 -13 58 -17 10 -4 17 -3 17 4 0 6 -12 16
-27 21 -16 6 -37 15 -48 20 -11 5 -31 12 -44 16 -21 5 -22 8 -8 16 10 5 22 6
28 3 5 -4 21 1 35 10 25 16 26 16 20 -2 -7 -21 8 -48 21 -40 6 4 15 -5 21 -18
8 -18 27 -29 68 -41 31 -9 63 -23 73 -33 9 -9 29 -22 44 -28 15 -7 27 -17 27
-22 0 -12 -69 -19 -90 -9 -8 3 -22 9 -31 11 -12 4 -15 13 -12 31 4 21 1 26
-15 26 -12 0 -26 -8 -31 -17 -10 -17 -11 -16 -17 3 -3 14 -16 24 -32 27 -15 3
-41 11 -59 18 -26 10 -38 10 -71 0 -38 -13 -43 -12 -88 13 -49 27 -66 27 -48
-2 12 -20 67 -49 106 -57 40 -8 68 -43 68 -83 l0 -35 -42 7 c-49 8 -58 14 -38
26 12 7 9 14 -15 40 -34 36 -57 38 -85 8 -49 -53 -47 29 7 221 2 9 19 -1 51
-30 26 -24 63 -51 82 -60z m-1050 56 c0 -5 -5 -3 -10 5 -5 8 -10 20 -10 25 0
6 5 3 10 -5 5 -8 10 -19 10 -25z m1260 33 c0 -2 -7 -21 -14 -43 -15 -42 -30
-55 -39 -32 -6 15 30 77 44 77 5 0 9 -1 9 -2z m-908 -48 c-1 -2 -12 -5 -25 -5
-16 0 -21 -5 -19 -20 6 -42 11 -47 42 -40 16 4 39 4 50 0 20 -6 20 -7 -2 -36
-69 -89 -61 -84 -105 -71 -46 14 -93 47 -93 66 0 7 30 44 66 82 61 63 67 67
77 49 6 -11 10 -22 9 -25z m259 -11 c10 -19 9 -20 -10 -9 -12 6 -21 18 -21 26
0 19 16 10 31 -17z m-86 2 c3 -5 1 -12 -5 -16 -5 -3 -10 1 -10 9 0 18 6 21 15
7z m879 -35 c-3 -14 -10 -26 -15 -26 -12 0 -11 4 3 35 14 31 21 26 12 -9z
m-834 -2 c0 -2 -7 -4 -15 -4 -8 0 -15 4 -15 10 0 5 7 7 15 4 8 -4 15 -8 15
-10z m750 -26 c0 -14 -14 -9 -45 17 l-30 25 38 -17 c20 -9 37 -20 37 -25z
m-3633 10 c-3 -8 -6 -5 -6 6 -1 11 2 17 5 13 3 -3 4 -12 1 -19z m3793 -7 c-6
-12 -8 -26 -5 -31 3 -6 2 -10 -3 -10 -19 0 -21 14 -5 41 19 32 31 32 13 0z
m-3234 -31 c46 0 134 -88 134 -135 0 -8 7 -15 16 -15 13 0 14 -3 5 -13 -19
-24 1 -28 22 -4 l19 22 -7 -25 c-7 -24 -7 -24 12 -7 21 18 38 23 29 8 -3 -5 7
-14 24 -19 22 -8 28 -15 23 -28 -5 -13 -3 -15 8 -9 8 4 11 5 7 0 -4 -4 -26 -9
-49 -11 -35 -4 -49 2 -93 33 -67 49 -113 96 -98 101 14 4 16 32 2 32 -5 0 -10
-5 -10 -11 0 -7 -12 -9 -34 -5 -23 4 -35 3 -38 -6 -5 -15 -38 48 -38 74 0 10
5 18 11 18 6 0 8 7 5 17 -6 16 -6 16 12 0 10 -9 27 -17 38 -17z m2302 -10 c23
-21 39 -41 35 -43 -12 -7 -124 64 -117 74 11 18 40 7 82 -31z m-2224 21 c3 -4
-6 -6 -19 -3 -14 2 -25 6 -25 8 0 8 39 4 44 -5z m3046 -1 c8 -5 12 -12 8 -15
-9 -9 -48 4 -48 16 0 12 21 11 40 -1z m-967 -86 c-9 -27 -18 -43 -21 -35 -4
12 28 95 35 88 1 -2 -5 -26 -14 -53z m111 23 c62 -29 63 -31 37 -100 -8 -21
-52 -46 -49 -28 5 38 -23 58 -36 25 -3 -8 -10 -12 -16 -9 -6 4 -8 11 -5 16 4
5 1 9 -4 9 -6 0 -11 5 -11 10 0 6 21 10 47 10 52 0 49 13 -5 27 -17 4 -32 11
-32 16 0 4 0 19 0 33 0 14 3 24 8 22 4 -2 33 -16 66 -31z m-2830 -25 c2 -23
-1 -42 -5 -42 -5 0 -9 6 -10 13 0 6 -2 20 -4 31 -4 19 4 50 11 43 3 -2 6 -23
8 -45z m1086 13 c0 -5 -5 -3 -10 5 -5 8 -10 20 -10 25 0 6 5 3 10 -5 5 -8 10
-19 10 -25z m2685 15 c23 -26 4 -26 -26 0 -18 15 -20 19 -8 20 9 0 24 -9 34
-20z m-1230 -22 c17 -17 31 -40 31 -50 1 -21 0 -21 -46 -8 -57 16 -62 22 -49
58 14 40 26 40 64 0z m-1725 -18 c0 -5 -7 -10 -15 -10 -8 0 -15 5 -15 10 0 6
7 10 15 10 8 0 15 -4 15 -10z m2154 -13 c11 -13 27 -31 35 -40 12 -15 12 -17
-5 -10 -35 14 -61 38 -61 56 0 23 6 22 31 -6z m219 -75 c-49 -48 -95 -99 -104
-113 -9 -13 -20 -21 -25 -16 -12 11 51 92 75 95 12 2 21 7 21 12 0 15 92 110
106 110 8 0 -25 -40 -73 -88z m-2333 32 c0 -6 -6 -14 -14 -17 -10 -4 -14 3
-13 30 1 31 2 33 14 17 7 -10 13 -23 13 -30z m1662 -19 c29 -14 64 -25 77 -25
17 0 22 -4 18 -17 -3 -10 -11 -39 -18 -65 -8 -31 -19 -48 -29 -48 -28 0 -83
19 -91 32 -6 10 -11 10 -19 2 -14 -14 -47 -7 -54 11 -3 8 4 24 14 38 10 13 22
37 26 53 7 30 13 44 19 44 1 0 27 -11 57 -25z m476 -12 c23 -10 32 -19 28 -29
-3 -9 -6 -22 -6 -30 0 -9 -11 -6 -36 11 -20 14 -46 25 -56 25 -14 0 -18 5 -14
16 3 9 6 20 6 25 0 11 21 6 78 -18z m-1428 -11 c0 -12 -30 -72 -36 -72 -5 0 5
60 12 72 7 11 24 10 24 0z m-1332 -13 c-2 -6 -8 -10 -13 -10 -5 0 -11 4 -13
10 -2 6 4 11 13 11 9 0 15 -5 13 -11z m1082 -11 c39 -60 39 -64 8 -77 -16 -8
-35 -25 -41 -39 l-12 -26 -5 30 c-5 23 -10 28 -28 27 -12 -2 -22 1 -22 6 0 5
-3 18 -7 28 -6 17 -6 17 15 0 26 -23 46 -13 38 19 -5 19 -3 22 10 17 14 -5 16
-2 12 15 -8 29 13 29 32 0z m1443 -3 c-7 -21 -13 -19 -13 6 0 11 4 18 10 14 5
-3 7 -12 3 -20z m-55 -42 c4 -63 -8 -83 -49 -83 -26 0 -29 3 -29 35 0 55 23
100 51 101 23 1 24 -2 27 -53z m-1187 31 c10 -13 -15 -25 -61 -28 -14 -2 -37
-6 -53 -10 -21 -6 -26 -5 -22 5 14 35 114 59 136 33z m1444 -34 c9 0 25 -4 35
-10 15 -8 17 -16 10 -47 -5 -21 -14 -39 -21 -42 -6 -2 -20 -12 -31 -23 -20
-20 -20 -20 -46 6 l-27 26 29 0 c37 0 29 24 -9 28 -18 2 -33 -2 -41 -13 -7
-10 -15 -12 -18 -6 -8 13 31 91 45 91 6 0 7 5 4 10 -14 23 7 27 30 4 13 -13
31 -24 40 -24z m-152 29 c12 -7 23 -13 25 -14 2 -2 -4 -19 -12 -39 -11 -26
-21 -36 -37 -36 -19 0 -21 4 -15 38 3 20 6 43 6 50 0 15 5 15 33 1z m381 -26
c-7 -21 -13 -46 -14 -55 0 -25 -37 -23 -50 1 -8 17 -6 23 16 38 14 10 33 26
42 36 9 9 17 17 18 17 1 0 -4 -17 -12 -37z m69 17 c-3 -12 -8 -19 -11 -16 -5
6 5 36 12 36 2 0 2 -9 -1 -20z m507 -4 c0 -2 -7 -7 -16 -10 -8 -3 -12 -2 -9 4
6 10 25 14 25 6z m-440 -46 c0 9 6 7 20 -5 10 -9 18 -22 17 -29 -1 -6 4 -10
11 -8 6 1 12 -6 13 -15 0 -15 2 -15 9 2 7 16 8 12 7 -17 -2 -38 -13 -40 -27
-4 -6 15 -9 16 -9 5 -1 -29 -30 -31 -37 -4 -4 16 -13 25 -25 25 -19 0 -24 16
-13 44 5 13 9 14 20 5 11 -9 14 -8 14 1z m-2154 -40 c7 -37 7 -42 3 -107 -4
-51 -9 -47 -43 34 -30 71 -31 83 -12 83 7 0 19 7 26 15 16 19 17 18 26 -25z
m2231 24 c-3 -3 -12 -4 -19 -1 -8 3 -5 6 6 6 11 1 17 -2 13 -5z m-3287 -88
c-12 -12 -24 59 -14 76 6 9 11 0 15 -27 4 -22 3 -44 -1 -49z m3027 28 c14 -11
43 -32 65 -45 48 -29 99 -72 78 -66 -8 2 -24 0 -35 -6 -18 -9 -19 -9 -6 6 15
19 15 19 -44 21 -19 1 -30 6 -30 16 0 24 -16 30 -87 30 -38 0 -68 2 -68 5 0
18 25 52 35 49 7 -3 21 6 32 19 16 22 19 23 27 9 5 -10 20 -26 33 -38z m-1782
26 c-3 -5 -11 -10 -16 -10 -6 0 -7 5 -4 10 3 6 11 10 16 10 6 0 7 -4 4 -10z
m541 -6 c-3 -7 0 -14 5 -16 5 -2 -4 -11 -21 -21 -26 -16 -30 -16 -31 -3 -3 33
-4 37 -19 46 -10 6 -2 9 28 7 29 -1 41 -5 38 -13z m444 -4 c0 -5 -4 -10 -10
-10 -50 0 100 -57 198 -75 l32 -7 0 -74 c0 -48 -4 -73 -10 -69 -5 3 -20 8 -32
10 -11 3 -31 14 -43 25 -19 18 -34 21 -91 20 -38 -1 -91 -1 -118 -1 -46 1 -48
2 -42 26 9 33 93 165 106 165 5 0 10 -4 10 -10z m-2176 -25 c3 -8 1 -15 -4
-15 -6 0 -10 7 -10 15 0 8 2 15 4 15 2 0 6 -7 10 -15z m1493 1 c-3 -7 -1 -18
4 -23 5 -5 20 -37 33 -71 23 -59 24 -63 7 -72 -11 -5 -20 -25 -23 -47 -3 -21
-14 -59 -25 -83 -11 -25 -26 -60 -34 -77 -18 -44 -25 -42 -21 5 2 22 -1 55 -6
75 -7 25 -6 64 3 128 7 51 10 101 7 111 -3 11 5 29 18 43 26 27 45 33 37 11z
m1045 -8 c-3 -14 -7 -17 -10 -9 -3 10 -6 11 -12 1 -5 -9 -17 -10 -36 -5 l-29
7 35 13 c51 19 59 18 52 -7z m88 3 c0 -10 -7 -21 -15 -25 -11 -4 -15 1 -15 19
0 16 6 25 15 25 8 0 15 -9 15 -19z m860 15 c0 -2 -7 -7 -16 -10 -8 -3 -12 -2
-9 4 6 10 25 14 25 6z m-370 -27 c-7 -11 -14 -18 -17 -15 -3 3 0 12 7 21 18
21 23 19 10 -6z m222 -41 c3 -21 -1 -32 -18 -43 -29 -18 -34 -19 -34 -2 0 8
-9 22 -20 32 -20 18 -20 18 0 35 11 10 20 23 20 29 0 23 48 -24 52 -51z
m-3041 35 c0 -11 3 -13 6 -5 2 6 10 12 17 12 7 0 13 -6 13 -12 0 -7 3 -22 6
-33 6 -17 3 -21 -15 -20 -13 0 -28 4 -35 8 -13 8 -28 -27 -18 -43 4 -6 -7 -10
-26 -10 -22 0 -43 -9 -62 -27 -26 -25 -28 -26 -18 -5 7 12 26 43 43 68 23 34
33 42 39 32 7 -10 9 -9 9 5 0 18 19 46 33 47 4 0 7 -8 8 -17z m2441 -14 c9 -5
16 -18 15 -29 -1 -20 -17 -29 -17 -9 0 5 -8 9 -17 8 -10 -1 -27 -1 -38 0 -17
1 -18 3 -5 11 10 6 11 10 3 10 -7 0 -13 7 -13 15 0 12 7 14 28 9 15 -4 35 -11
44 -15z m-2718 -63 c4 -21 9 -43 13 -50 3 -6 -2 -4 -11 5 -9 8 -19 37 -22 65
-6 58 10 42 20 -20z m3171 44 c-3 -5 -11 -10 -16 -10 -6 0 -7 5 -4 10 3 6 11
10 16 10 6 0 7 -4 4 -10z m-280 -19 c3 -5 0 -13 -6 -17 -7 -4 -9 -3 -5 4 3 6
-2 13 -11 15 -16 4 -16 5 -1 6 9 0 19 -3 23 -8z m-3118 -23 c-3 -8 -6 -5 -6 6
-1 11 2 17 5 13 3 -3 4 -12 1 -19z m2810 16 c24 -7 24 -3 7 -142 l-5 -43 -57
3 c-72 4 -75 16 -22 86 41 56 45 84 7 59 -12 -8 -36 -33 -54 -56 -36 -46 -33
-48 -47 36 l-5 32 60 7 c33 4 62 11 65 15 6 10 20 11 51 3z m260 0 c-3 -3 -12
-4 -19 -1 -8 3 -5 6 6 6 11 1 17 -2 13 -5z m-150 -27 l41 -12 -20 -45 c-41
-90 -78 -108 -78 -36 0 36 9 106 14 106 0 0 20 -6 43 -13z m163 3 c0 -5 -5
-10 -11 -10 -5 0 -7 5 -4 10 3 6 8 10 11 10 2 0 4 -4 4 -10z m-3273 -57 c-3
-10 -5 -2 -5 17 0 19 2 27 5 18 2 -10 2 -26 0 -35z m3899 36 c56 -14 53 -34
-8 -53 -22 -7 -24 -46 -3 -46 8 0 15 -5 15 -11 0 -6 -9 -9 -20 -6 -14 3 -20 0
-20 -11 0 -8 -3 -12 -6 -9 -4 3 -15 2 -26 -4 -17 -9 -18 -8 -10 8 6 10 8 31 5
46 -5 27 11 39 20 15 4 -8 6 -9 6 -2 1 6 -6 17 -14 24 -23 19 -18 60 7 60 5 0
29 -5 54 -11z m-216 -9 c0 -5 -5 -10 -11 -10 -5 0 -7 5 -4 10 3 6 8 10 11 10
2 0 4 -4 4 -10z m-82 -24 c121 -107 120 -106 66 -105 -92 1 -126 -3 -189 -25
-68 -24 -105 -31 -154 -28 -38 3 -14 17 64 40 99 28 124 33 196 34 63 1 63 1
40 19 -29 23 -89 25 -168 4 -72 -20 -206 -46 -210 -42 -1 2 34 20 80 41 45 20
105 48 132 61 66 31 108 32 143 1z m-374 -1 c-4 -8 -10 -15 -14 -15 -10 0 -43
-70 -36 -77 3 -3 27 18 53 47 46 49 50 51 93 48 l45 -4 -70 -34 c-38 -18 -93
-53 -121 -77 -62 -52 -75 -40 -38 33 13 26 24 55 24 64 0 23 9 30 41 30 21 0
27 -4 23 -15z m-3004 -12 c0 -9 3 -14 6 -10 3 3 16 -13 28 -36 l23 -42 -21
-34 -20 -35 -15 35 c-8 19 -16 46 -17 61 -2 15 -4 31 -5 35 -1 4 -1 16 0 26 1
22 21 23 21 0z m-226 -127 c4 -53 3 -76 -5 -76 -6 0 -8 7 -5 16 4 12 1 14 -14
9 -15 -5 -20 -2 -20 12 0 11 -5 24 -11 30 -8 8 -7 17 4 34 8 13 18 40 22 59 7
31 9 33 16 14 4 -12 10 -56 13 -98z m479 85 c-6 -3 -13 -16 -17 -28 -9 -27
-24 -31 -22 -6 1 22 40 64 45 50 2 -5 -1 -12 -6 -16z m3297 4 c24 -29 4 -38
-25 -12 -28 24 -28 26 -9 27 12 0 27 -7 34 -15z m-3763 -27 c-3 -7 -5 -2 -5
12 0 14 2 19 5 13 2 -7 2 -19 0 -25z m1387 7 c11 -8 16 -15 10 -15 -5 0 -2 -5
6 -10 9 -6 11 -10 3 -10 -7 0 -10 -6 -8 -12 3 -7 8 -46 13 -85 8 -70 8 -73
-12 -72 -35 1 -103 17 -78 18 21 1 23 5 22 54 -1 28 1 68 4 87 2 19 5 41 5 48
1 16 11 15 35 -3z m586 1 c0 -15 -16 -30 -44 -40 -20 -7 -19 -6 19 41 13 16
25 16 25 -1z m-1810 -71 c0 -46 -3 -53 -16 -48 -12 4 -13 8 -3 13 8 6 10 22 6
55 -4 29 -3 44 3 40 6 -3 10 -31 10 -60z m341 32 c-10 -9 -11 -8 -5 6 3 10 9
15 12 12 3 -3 0 -11 -7 -18z m1039 -13 c-6 -14 -8 -30 -4 -35 3 -5 3 -9 -1 -9
-12 0 -22 45 -13 58 18 21 28 13 18 -14z m-1143 -16 c-3 -7 -5 -2 -5 12 0 14
2 19 5 13 2 -7 2 -19 0 -25z m1193 -10 c7 -23 10 -52 7 -64 -2 -14 2 -25 11
-29 27 -10 -8 -35 -50 -35 -36 0 -38 1 -24 16 15 15 20 47 16 106 -4 60 25 64
40 6z m-1953 -10 c-3 -8 -6 -5 -6 6 -1 11 2 17 5 13 3 -3 4 -12 1 -19z m2294
-45 c-8 -13 -10 -14 -11 -4 0 11 -4 9 -14 -5 -8 -11 -18 -15 -23 -10 -4 5 -2
11 5 13 6 3 12 11 12 18 0 8 8 18 18 24 21 12 29 -9 13 -36z m1259 37 c0 -5
-5 -10 -11 -10 -5 0 -7 5 -4 10 3 6 8 10 11 10 2 0 4 -4 4 -10z m-2190 -64 c0
-2 -9 -6 -20 -9 -11 -3 -18 -1 -14 4 5 9 34 13 34 5z m530 -16 c0 -5 -2 -10
-4 -10 -3 0 -8 5 -11 10 -3 6 -1 10 4 10 6 0 11 -4 11 -10z m360 -20 c0 -12 7
-20 16 -20 14 0 15 -8 9 -47 -3 -27 -13 -53 -21 -59 -8 -6 -14 -19 -14 -28 0
-9 -7 -16 -15 -16 -17 0 -20 16 -5 25 5 3 6 15 1 28 -4 12 -6 28 -4 35 3 6 0
12 -6 12 -8 0 -6 10 4 30 8 16 15 36 15 45 0 8 5 15 10 15 6 0 10 -9 10 -20z
m-1296 -48 c-10 -39 -25 -57 -35 -40 -7 10 -9 9 -9 -4 0 -10 -4 -18 -10 -18
-15 0 -12 33 5 56 8 10 15 27 15 37 0 15 3 16 20 7 16 -8 19 -17 14 -38z
m1956 28 c0 -5 -5 -10 -11 -10 -5 0 -7 5 -4 10 3 6 8 10 11 10 2 0 4 -4 4 -10z
m-40 -25 c-7 -8 -17 -12 -23 -8 -6 4 -7 1 -3 -6 5 -7 15 -10 24 -6 16 6 8 -6
-35 -52 -6 -7 -19 -31 -29 -53 -17 -37 -43 -59 -30 -24 3 9 6 30 6 48 0 35 43
101 70 109 28 9 32 7 20 -8z m820 -9 c0 -3 -4 -8 -10 -11 -5 -3 -10 -1 -10 4
0 6 5 11 10 11 6 0 10 -2 10 -4z m-1217 -40 c6 -15 -21 -31 -32 -20 -3 4 0 9
7 11 6 3 10 9 6 14 -3 5 -1 9 4 9 6 0 12 -6 15 -14z m1227 -31 c8 5 8 1 -1
-13 -10 -16 -16 -18 -26 -10 -7 6 -13 7 -13 2 0 -5 -14 -9 -30 -10 -17 -1 -30
3 -30 7 0 5 8 9 18 9 10 0 27 6 38 14 12 10 21 11 25 4 4 -6 12 -7 19 -3z
m-1206 -17 c-19 -31 -29 -35 -42 -19 -7 9 -11 11 -8 4 6 -11 -38 -53 -56 -53
-5 0 -2 13 6 29 11 20 27 32 53 39 52 14 55 14 47 0z m-294 -33 c0 -5 -5 -3
-10 5 -5 8 -10 20 -10 25 0 6 5 3 10 -5 5 -8 10 -19 10 -25z m1435 -15 c-3 -5
-11 -10 -16 -10 -6 0 -7 5 -4 10 3 6 11 10 16 10 6 0 7 -4 4 -10z m-1421 -15
c-4 -8 -8 -15 -10 -15 -2 0 -4 7 -4 15 0 8 4 15 10 15 5 0 7 -7 4 -15z"/>
<path d="M4056 4654 c-9 -23 -2 -28 13 -10 7 8 8 17 3 20 -6 3 -13 -1 -16 -10z"/>
<path d="M3730 4611 c0 -5 5 -13 10 -16 6 -3 10 -2 10 4 0 5 -4 13 -10 16 -5
3 -10 2 -10 -4z"/>
<path d="M1230 3728 c0 -9 5 -20 10 -23 13 -8 13 5 0 25 -8 13 -10 13 -10 -2z"/>
<path d="M1240 3673 c0 -4 5 -15 10 -23 8 -13 10 -13 10 2 0 9 -4 20 -10 23
-5 3 -10 3 -10 -2z"/>
<path d="M2821 4308 c0 -9 -4 -25 -7 -35 -5 -17 -5 -17 6 0 6 10 9 25 7 35 -4
15 -5 15 -6 0z"/>
<path d="M3500 2781 c-17 -5 -21 -9 -13 -14 12 -7 53 7 53 18 0 6 -7 5 -40 -4z"/>
<path d="M3557 2669 c-16 -23 -27 -42 -25 -44 7 -7 36 22 52 53 23 45 7 39
-27 -9z"/>
<path d="M3532 2543 c-18 -24 -32 -49 -30 -55 2 -6 17 9 32 33 27 41 30 42 37
21 10 -27 18 -28 35 -4 16 20 18 52 4 52 -5 0 -10 -10 -11 -22 l0 -23 -9 23
c-13 31 -20 28 -58 -25z"/>
<path d="M2495 2389 c-4 -6 -5 -12 -2 -15 2 -3 7 2 10 11 7 17 1 20 -8 4z"/>
<path d="M3214 2097 c3 -10 6 -25 6 -32 0 -7 7 -15 15 -19 22 -8 19 18 -6 45
-16 19 -19 20 -15 6z"/>
<path d="M3391 1910 c-20 -17 -21 -20 -5 -20 10 0 29 -12 43 -27 l24 -28 -5
28 c-5 27 -5 27 13 11 16 -14 19 -15 19 -2 0 11 -51 59 -62 58 -2 -1 -14 -10
-27 -20z m44 1 c3 -5 1 -12 -4 -15 -5 -3 -11 1 -15 9 -6 16 9 21 19 6z"/>
<path d="M3320 1842 c0 -10 43 -42 56 -42 10 0 -17 30 -38 41 -10 6 -18 6 -18
1z"/>
<path d="M1931 2144 c0 -11 3 -14 6 -6 3 7 2 16 -1 19 -3 4 -6 -2 -5 -13z"/>
<path d="M2670 1420 c0 -5 5 -10 11 -10 5 0 7 5 4 10 -3 6 -8 10 -11 10 -2 0
-4 -4 -4 -10z"/>
<path d="M2630 1412 c0 -6 -8 -13 -17 -15 -16 -4 -16 -5 -1 -6 18 -1 34 16 24
26 -3 4 -6 1 -6 -5z"/>
<path d="M1370 1024 c0 -8 5 -12 10 -9 6 3 10 10 10 16 0 5 -4 9 -10 9 -5 0
-10 -7 -10 -16z"/>
<path d="M3700 1249 c0 -8 7 -24 15 -35 11 -15 14 -16 15 -3 0 8 -7 24 -15 35
-11 15 -14 16 -15 3z"/>
<path d="M1140 1006 c0 -8 8 -14 18 -14 9 1 29 -2 45 -5 31 -8 33 -5 11 17
-20 20 -74 21 -74 2z"/>
<path d="M2970 620 c0 -5 5 -10 10 -10 6 0 10 5 10 10 0 6 -4 10 -10 10 -5 0
-10 -4 -10 -10z"/>
<path d="M2260 200 c0 -5 5 -10 10 -10 6 0 10 5 10 10 0 6 -4 10 -10 10 -5 0
-10 -4 -10 -10z"/>
<path d="M2418 5819 c-24 -25 -23 -32 2 -19 11 6 20 7 20 3 0 -10 20 19 20 30
0 13 -25 6 -42 -14z"/>
<path d="M4008 5817 c13 -15 101 -61 107 -55 3 2 -23 19 -57 37 -34 17 -56 26
-50 18z"/>
<path d="M2473 5813 c10 -15 43 -22 58 -12 12 7 11 9 -1 9 -8 0 -26 3 -39 7
-16 4 -22 2 -18 -4z"/>
<path d="M2557 5798 c6 -11 51 -10 58 1 3 5 -10 9 -29 8 -19 -1 -32 -5 -29 -9z"/>
<path d="M2650 5795 c-10 -12 -9 -15 8 -15 11 0 29 -3 39 -6 17 -5 17 -5 0 9
-18 15 -18 16 5 20 18 3 17 5 -8 6 -17 0 -37 -6 -44 -14z"/>
<path d="M3845 5774 c-34 -17 -67 -45 -61 -51 2 -2 19 3 37 11 19 8 49 20 67
26 17 7 32 16 32 21 0 14 -42 10 -75 -7z"/>
<path d="M3340 5755 c-24 -25 -51 -38 -118 -55 -33 -8 -48 -20 -67 -50 -25
-40 -45 -52 -45 -27 0 7 7 23 16 35 14 20 14 22 -1 22 -14 0 -15 7 -9 45 5 40
4 45 -12 45 -11 0 -26 -5 -34 -10 -12 -8 -11 -10 8 -10 33 0 27 -16 -10 -25
-29 -7 -30 -9 -10 -12 18 -4 21 -8 12 -18 -6 -7 -15 -27 -20 -43 -7 -27 -5
-33 16 -47 14 -9 29 -13 34 -10 5 3 11 1 15 -5 3 -5 10 -10 15 -10 15 0 50 43
50 61 0 21 36 49 62 49 16 0 17 -3 6 -22 -7 -13 -28 -42 -47 -66 -18 -24 -30
-46 -27 -50 7 -6 28 16 103 106 36 42 93 81 93 63 0 -5 -29 -39 -64 -75 -36
-36 -68 -75 -71 -86 -4 -11 -13 -20 -22 -20 -13 0 -13 -3 -3 -15 18 -22 29
-19 43 12 12 27 130 150 181 188 40 30 30 50 -26 51 -37 1 -51 -3 -68 -21z"/>
<path d="M2919 5754 c-12 -15 -11 -16 8 -10 18 6 22 3 25 -21 2 -19 9 -29 23
-30 11 -2 14 0 8 3 -7 3 -13 14 -13 24 0 48 -26 65 -51 34z"/>
<path d="M2340 5723 c-28 -54 -55 -83 -77 -83 -30 -1 -95 -35 -146 -79 -29
-24 -63 -43 -85 -47 -20 -3 -52 -10 -70 -14 -24 -6 -44 -4 -75 9 -39 16 -45
16 -83 2 -50 -19 -103 -78 -108 -120 -2 -17 -10 -38 -17 -48 -12 -15 -12 -16
6 -11 11 3 29 9 40 13 11 4 7 -2 -10 -14 -17 -12 -38 -18 -48 -15 -19 6 -50
-13 -42 -26 5 -8 28 -7 112 6 48 7 106 97 107 165 1 51 13 62 37 33 20 -24
133 -12 201 21 29 14 58 25 65 25 17 0 101 44 129 67 19 16 104 138 104 149 0
2 -4 4 -10 4 -5 0 -19 -17 -30 -37z m-91 -116 c-25 -16 -99 -45 -99 -38 0 10
92 52 99 45 2 -2 2 -5 0 -7z m-490 -166 c-28 -36 -49 -51 -49 -36 0 9 73 86
77 81 3 -3 -10 -23 -28 -45z"/>
<path d="M4193 5732 c19 -20 57 -36 57 -23 0 7 -29 24 -65 40 -5 2 -2 -5 8
-17z"/>
<path d="M4455 5643 c-23 -13 -26 -18 -13 -21 20 -4 58 14 58 28 0 14 -10 12
-45 -7z"/>
<path d="M4480 5570 c0 -5 5 -10 10 -10 6 0 10 5 10 10 0 6 -4 10 -10 10 -5 0
-10 -4 -10 -10z"/>
<path d="M1992 5290 c-18 -16 -32 -34 -32 -40 0 -16 -42 -64 -59 -68 -17 -4
-51 7 -50 16 4 26 -3 34 -23 27 -13 -3 -34 -8 -48 -10 -50 -7 -75 -15 -100
-33 -14 -10 -37 -22 -52 -26 -24 -5 -28 -3 -28 14 0 32 28 80 47 80 14 0 14 2
-3 15 -29 22 -38 18 -54 -23 -19 -46 -12 -103 13 -111 10 -4 18 -10 18 -14 -2
-21 1 -26 18 -32 17 -5 18 -10 9 -41 -5 -19 -6 -50 -3 -67 6 -25 4 -29 -5 -20
-7 6 -16 38 -20 70 l-7 58 -2 -58 c-1 -45 4 -66 20 -88 23 -33 42 -30 33 7 -8
33 4 111 21 127 7 7 22 34 34 59 19 43 22 45 59 43 48 -3 67 -12 53 -28 -12
-15 -44 -127 -38 -133 2 -3 8 8 11 23 10 41 46 113 57 113 14 0 10 -46 -5 -59
-8 -7 -15 -20 -14 -29 0 -14 -31 -107 -40 -122 -2 -2 -7 2 -12 10 -5 9 -8 -6
-7 -40 3 -70 22 -76 31 -9 8 57 72 193 105 223 32 29 36 11 31 -142 -2 -42 15
-62 51 -62 29 0 32 5 44 70 l6 35 -20 -22 c-25 -30 -41 -29 -41 2 0 14 4 25 9
25 4 0 6 11 3 25 -2 14 0 25 7 25 5 0 8 7 5 15 -7 18 -34 20 -35 3 0 -7 -5 0
-9 16 -11 35 -4 50 14 33 10 -9 11 -14 2 -19 -6 -4 3 -8 21 -8 17 0 35 -5 38
-10 4 -6 1 -9 -5 -8 -7 2 -14 -12 -16 -34 -3 -22 0 -38 6 -38 5 0 10 7 10 16
0 11 6 14 23 9 18 -6 20 -5 10 6 -17 17 -16 29 1 29 7 0 19 7 26 15 7 8 18 15
24 15 6 0 4 -5 -4 -10 -8 -5 -10 -10 -5 -10 6 0 15 4 21 8 15 10 25 42 14 42
-6 0 -10 -6 -10 -14 0 -9 -7 -12 -20 -9 -11 3 -20 7 -20 10 0 8 23 48 31 53
13 9 60 120 50 120 -5 0 -14 -7 -21 -15 -7 -9 -21 -13 -31 -10 -19 6 -89 -53
-89 -75 0 -8 -10 -11 -25 -8 -14 3 -25 2 -25 -3 0 -5 -9 -13 -19 -19 -19 -10
-19 -9 -5 17 7 16 14 32 14 37 0 5 12 24 26 43 34 44 27 51 -14 13z m106 -105
c-6 -14 -15 -25 -20 -25 -4 0 -8 11 -8 25 0 18 5 25 20 25 17 0 18 -3 8 -25z"/>
<path d="M4008 5193 c6 -2 18 -2 25 0 6 3 1 5 -13 5 -14 0 -19 -2 -12 -5z"/>
<path d="M1750 5150 c0 -5 5 -10 11 -10 5 0 7 5 4 10 -3 6 -8 10 -11 10 -2 0
-4 -4 -4 -10z"/>
<path d="M2138 5089 c-29 -16 -21 -29 15 -22 40 7 45 12 27 23 -18 12 -21 12
-42 -1z"/>
<path d="M2485 5000 c-3 -5 -2 -10 4 -10 5 0 13 5 16 10 3 6 2 10 -4 10 -5 0
-13 -4 -16 -10z"/>
<path d="M2330 4860 c0 -9 10 -13 65 -25 26 -6 28 -5 15 8 -18 17 -80 31 -80
17z"/>
<path d="M4466 4775 c-11 -8 -17 -17 -14 -21 7 -6 48 17 48 28 0 12 -13 9 -34
-7z"/>
<path d="M2070 4730 c-9 -6 -7 -11 11 -20 13 -7 35 -20 48 -29 23 -15 24 -15
12 7 -6 12 -16 22 -21 22 -5 0 -15 6 -23 14 -8 8 -19 11 -27 6z"/>
<path d="M2560 4699 c0 -5 5 -7 10 -4 6 3 10 8 10 11 0 2 -4 4 -10 4 -5 0 -10
-5 -10 -11z"/>
<path d="M2370 4670 c-8 -26 -7 -41 2 -32 6 6 8 16 5 24 -3 7 -6 11 -7 8z"/>
<path d="M2142 4564 c2 -17 18 -48 39 -72 39 -46 54 -53 46 -23 -3 12 0 18 7
16 6 -2 25 -6 41 -9 22 -5 26 -4 15 4 -13 9 -13 11 0 20 12 8 11 10 -6 10 -31
0 -75 23 -70 37 3 7 -1 10 -10 6 -8 -3 -26 5 -40 17 l-24 24 2 -30z"/>
<path d="M1261 4274 c0 -11 3 -14 6 -6 3 7 2 16 -1 19 -3 4 -6 -2 -5 -13z"/>
<path d="M3675 4250 c-12 -19 24 -60 50 -60 19 0 25 5 25 23 0 13 -5 28 -12
35 -15 15 -55 16 -63 2z"/>
<path d="M3471 4196 c-6 -7 -14 -26 -17 -42 -5 -26 -2 -32 22 -42 24 -11 29
-10 47 9 16 17 18 27 11 47 -11 30 -48 47 -63 28z"/>
<path d="M3640 4163 c-14 -9 -27 -18 -29 -19 -2 -2 -5 -14 -7 -26 -1 -13 -6
-44 -10 -69 -6 -41 -4 -48 17 -63 38 -26 57 -20 68 22 15 51 14 72 -4 72 -20
0 -19 14 1 31 12 10 20 10 35 1 47 -30 54 4 8 42 -36 30 -46 32 -79 9z"/>
<path d="M3171 4119 c-17 -30 -23 -56 -23 -98 0 -34 -5 -65 -14 -79 -9 -13
-13 -26 -10 -30 3 -3 31 -7 61 -10 44 -4 55 -2 53 9 -2 8 5 13 15 12 14 -1 18
4 13 20 -3 11 0 27 6 35 16 19 19 42 7 63 -6 11 -5 20 1 24 17 10 11 61 -8 78
-10 10 -32 17 -48 17 -25 0 -34 -7 -53 -41z m99 -7 c0 -15 -2 -15 -10 -2 -13
20 -13 33 0 25 6 -3 10 -14 10 -23z"/>
<path d="M3825 4120 c-10 -11 -14 -26 -10 -42 5 -19 1 -27 -19 -38 -14 -7 -28
-21 -31 -31 -4 -10 -18 -28 -32 -39 -14 -11 -23 -23 -20 -27 4 -3 15 2 26 11
11 10 22 13 25 8 3 -5 18 -13 33 -17 21 -5 31 -1 44 17 14 18 20 21 30 11 20
-20 30 -15 23 12 -5 20 -2 25 13 25 11 0 25 11 31 25 10 21 9 28 -7 44 -10 10
-20 24 -22 30 -2 6 -18 15 -36 20 -25 7 -35 6 -48 -9z"/>
<path d="M3141 4123 c-2 -21 -95 -111 -138 -132 -48 -24 -57 -51 -18 -51 44 0
175 148 162 183 -4 8 -6 8 -6 0z"/>
<path d="M3366 4095 c-33 -31 -31 -59 5 -63 24 -3 27 1 32 35 6 51 -4 59 -37
28z"/>
<path d="M4203 4095 c-14 -15 -18 -65 -5 -65 6 0 30 51 33 70 1 11 -17 8 -28
-5z"/>
<path d="M2192 4035 c0 -16 2 -22 5 -12 2 9 2 23 0 30 -3 6 -5 -1 -5 -18z"/>
<path d="M2235 4023 c-11 -69 -11 -69 -23 -43 -10 22 -11 19 -11 -27 -1 -47
15 -83 37 -83 4 0 7 43 7 95 0 52 -1 95 -2 95 -1 0 -5 -17 -8 -37z"/>
<path d="M3490 4046 c0 -8 -8 -23 -17 -32 -17 -17 -17 -18 0 -11 9 3 17 3 17
-2 0 -5 11 -8 25 -8 19 0 25 5 25 21 0 25 -17 46 -37 46 -7 0 -13 -6 -13 -14z"/>
<path d="M2168 3960 c-11 -35 -10 -168 1 -174 15 -9 17 14 11 109 -3 61 -7 82
-12 65z"/>
<path d="M3350 3948 c0 -13 5 -30 10 -38 14 -23 34 3 26 34 -8 32 -36 35 -36
4z"/>
<path d="M3510 3955 c0 -15 40 -82 59 -99 15 -13 28 -16 48 -11 32 8 53 23 53
37 0 6 -7 5 -15 -2 -17 -14 -50 -6 -40 11 11 17 -26 49 -57 49 -15 0 -28 5
-28 10 0 6 -4 10 -10 10 -5 0 -10 -2 -10 -5z"/>
<path d="M3967 3919 c-4 -15 3 -30 24 -50 16 -16 34 -29 39 -29 4 0 15 -3 24
-6 13 -5 16 1 16 29 0 28 -6 40 -29 56 -38 27 -67 27 -74 0z"/>
<path d="M3442 3888 c3 -24 8 -51 12 -60 5 -11 4 -18 -3 -18 -6 0 -11 8 -11
18 0 11 -8 26 -18 36 -18 15 -20 15 -34 -1 -8 -10 -18 -26 -21 -36 -6 -15 -10
-16 -27 -5 -17 11 -22 10 -30 -2 -5 -8 -10 -25 -10 -38 0 -20 -4 -23 -29 -19
-20 4 -36 -1 -50 -14 -12 -11 -21 -17 -21 -13 0 4 -9 -1 -20 -11 -16 -15 -20
-31 -20 -82 0 -40 -4 -62 -10 -58 -6 3 -8 18 -5 33 3 15 2 21 -1 14 -5 -10 -9
-10 -20 -1 -21 17 -29 3 -10 -17 12 -12 14 -20 7 -27 -6 -6 -11 -17 -11 -25 0
-7 -7 -20 -15 -29 -9 -8 -14 -17 -11 -20 2 -3 14 5 26 17 13 13 25 18 29 13 3
-6 31 -9 61 -7 30 2 82 4 115 5 33 0 67 6 76 12 22 17 20 48 -5 68 -24 20 -54
13 -68 -15 -6 -15 -20 -23 -41 -24 -18 -1 -40 -5 -51 -8 -18 -6 -18 -5 0 26
18 29 18 32 2 41 -13 7 -16 18 -11 42 8 43 22 58 29 29 4 -12 13 -22 20 -22 8
0 14 -3 14 -7 0 -13 64 -13 72 0 4 6 5 20 2 30 -5 17 -4 17 15 -2 12 -12 25
-21 30 -21 11 0 32 25 30 36 -3 20 2 23 26 14 40 -15 52 7 50 95 -1 79 -9 95
-49 95 -15 0 -17 -6 -14 -42z"/>
<path d="M3290 3880 c-12 -23 -6 -40 16 -40 8 0 14 10 14 24 0 33 -16 42 -30
16z"/>
<path d="M3682 3863 c-25 -48 -23 -71 7 -92 16 -12 31 -21 34 -21 3 0 17 20
31 45 25 46 25 46 6 65 -25 25 -66 26 -78 3z"/>
<path d="M3876 3843 c-22 -22 -26 -34 -22 -57 16 -79 103 -68 120 16 9 45 9
45 -25 57 -43 15 -42 15 -73 -16z"/>
<path d="M3207 3830 c-4 -15 0 -20 14 -20 21 0 22 1 13 24 -8 22 -21 20 -27
-4z"/>
<path d="M3166 3811 c-3 -5 1 -14 9 -21 12 -10 15 -10 15 3 0 19 -16 31 -24
18z"/>
<path d="M3532 3808 c-16 -16 -15 -43 3 -58 8 -7 19 -26 23 -43 4 -16 17 -36
27 -43 19 -12 20 -10 22 42 3 49 0 58 -27 84 -35 35 -32 34 -48 18z"/>
<path d="M4070 3785 c0 -7 -7 -18 -16 -23 -20 -11 -11 -65 16 -92 16 -16 23
-17 44 -7 22 10 26 18 26 59 0 50 -18 78 -51 78 -10 0 -19 -7 -19 -15z"/>
<path d="M3700 3721 c0 -19 24 -44 53 -54 12 -5 17 -1 17 12 0 19 -24 44 -52
54 -13 5 -18 1 -18 -12z"/>
<path d="M3450 3688 c0 -7 7 -22 15 -32 18 -23 39 -10 33 20 -4 22 -48 33 -48
12z"/>
<path d="M4169 3696 c-1 -3 -2 -10 -3 -15 0 -5 -4 -13 -8 -17 -5 -4 -8 -22 -8
-41 0 -36 10 -44 62 -47 25 -1 33 -7 38 -26 8 -34 63 -41 80 -11 15 29 -18 61
-64 61 -29 0 -35 5 -46 33 -6 17 -15 38 -19 46 -8 15 -30 27 -32 17z"/>
<path d="M3866 3682 c-6 -11 35 -83 55 -95 19 -12 37 1 58 41 14 27 5 45 -20
39 -10 -3 -26 1 -36 9 -20 15 -49 18 -57 6z"/>
<path d="M3646 3627 c-25 -18 -11 -45 20 -39 26 5 31 23 11 41 -10 8 -18 7
-31 -2z"/>
<path d="M3790 3630 c-8 -5 -23 -11 -32 -14 -22 -7 -25 -68 -4 -85 20 -17 74
-31 92 -24 32 12 36 42 13 81 -32 52 -42 58 -69 42z"/>
<path d="M3475 3607 c-35 -25 -35 -48 1 -90 l24 -29 2 34 c1 18 2 41 2 50 0
13 6 16 29 11 26 -5 28 -3 25 18 -4 32 -43 35 -83 6z"/>
<path d="M4060 3581 c0 -5 -7 -17 -16 -25 -8 -9 -18 -31 -21 -50 -4 -27 -1
-36 15 -45 27 -15 50 -5 67 30 18 34 19 71 3 87 -14 14 -48 16 -48 3z"/>
<path d="M3650 3570 c0 -5 -8 -9 -17 -8 -42 3 -60 -3 -71 -26 -7 -17 -7 -27 1
-35 19 -19 44 -12 81 24 38 37 45 55 21 55 -8 0 -15 -4 -15 -10z"/>
<path d="M3700 3550 c-13 -8 -12 -10 3 -10 9 0 17 5 17 10 0 12 -1 12 -20 0z"/>
<path d="M4161 3513 c-15 -32 -7 -41 42 -48 32 -5 37 -4 37 12 0 22 -35 63
-54 63 -7 0 -18 -12 -25 -27z"/>
<path d="M2936 3515 c-15 -8 -34 -15 -40 -15 -6 0 -19 -13 -29 -29 -17 -28
-14 -52 15 -116 13 -30 45 -48 65 -36 11 5 26 5 41 0 20 -8 29 -5 43 10 11 11
19 26 19 32 0 7 11 27 25 45 24 32 24 33 5 39 -11 3 -20 15 -20 25 0 16 -5 18
-35 13 -34 -5 -48 8 -25 22 14 9 2 25 -18 25 -9 0 -30 -7 -46 -15z"/>
<path d="M3232 3461 c-57 -27 -73 -45 -82 -89 -4 -20 -11 -44 -14 -53 -11 -25
24 -19 36 5 8 19 16 21 81 18 91 -5 139 13 168 63 13 22 29 35 42 35 42 0 -2
24 -46 26 -23 0 -64 4 -92 8 -40 5 -59 3 -93 -13z"/>
<path d="M3713 3451 c-23 -11 -57 -27 -77 -36 -20 -9 -44 -14 -55 -10 -32 10
-26 -14 7 -27 21 -9 23 -12 10 -15 -10 -3 -18 -8 -18 -13 0 -13 26 -19 41 -9
23 14 111 11 106 -3 -2 -8 -18 -12 -41 -10 -44 4 -86 -20 -86 -48 0 -14 -7
-20 -22 -20 -19 0 -20 -2 -8 -10 8 -5 47 -10 85 -11 l70 -1 -44 -11 c-31 -7
-56 -7 -85 1 -46 12 -54 9 -36 -13 7 -9 29 -15 50 -15 45 0 72 -9 64 -21 -12
-20 65 6 116 40 66 43 145 70 190 63 42 -6 37 21 -6 28 -18 4 -25 8 -17 13 9
6 9 15 2 34 -12 32 -29 46 -91 77 -69 35 -106 39 -155 17z m14 -77 c-3 -3 -12
-4 -19 -1 -8 3 -5 6 6 6 11 1 17 -2 13 -5z m173 -69 c0 -8 -9 -15 -20 -15 -20
0 -26 11 -13 23 12 13 33 7 33 -8z m30 -5 c0 -5 -4 -10 -10 -10 -5 0 -10 5
-10 10 0 6 5 10 10 10 6 0 10 -4 10 -10z"/>
<path d="M4004 3395 c-18 -47 23 -115 69 -115 17 0 19 6 15 50 -3 27 -11 56
-18 65 -16 19 -59 20 -66 0z"/>
<path d="M4384 3397 c-7 -20 31 -94 56 -107 49 -26 86 54 43 93 -27 23 -91 33
-99 14z"/>
<path d="M4170 3382 c0 -32 28 -60 65 -64 31 -3 35 -1 35 18 0 13 -12 32 -26
43 -34 26 -74 28 -74 3z"/>
<path d="M3113 3283 c-8 -3 -13 -25 -13 -57 0 -42 5 -57 22 -72 l21 -19 -8 35
c-5 19 -9 54 -9 78 0 23 -1 42 -1 41 0 0 -6 -3 -12 -6z"/>
<path d="M4366 3254 c-34 -33 -9 -112 39 -126 11 -3 29 -9 39 -13 17 -8 18 -5
11 31 -17 92 -57 141 -89 108z"/>
<path d="M4171 3238 c-18 -48 31 -96 83 -82 21 5 24 11 23 47 -1 25 -7 42 -14
42 -6 0 -15 3 -19 8 -4 4 -20 7 -36 7 -21 0 -31 -6 -37 -22z"/>
<path d="M3352 3142 c-9 -6 -7 -11 10 -19 33 -15 72 -9 76 10 3 14 -4 17 -35
17 -21 0 -44 -4 -51 -8z"/>
<path d="M4093 3123 c-30 -11 1 -103 33 -103 14 0 34 38 34 65 0 17 -49 44
-67 38z"/>
<path d="M2376 3053 c-6 -14 -5 -15 5 -6 7 7 10 15 7 18 -3 3 -9 -2 -12 -12z"/>
<path d="M4300 3029 c0 -9 -10 -19 -21 -22 -19 -5 -21 -11 -15 -39 8 -42 25
-58 62 -61 24 -2 29 2 32 23 1 15 -10 43 -28 70 -16 25 -30 38 -30 29z"/>
<path d="M4476 2928 c14 -48 23 -54 24 -15 0 27 -4 37 -16 37 -11 0 -14 -6 -8
-22z"/>
<path d="M1860 2860 c0 -5 5 -10 11 -10 5 0 7 5 4 10 -3 6 -8 10 -11 10 -2 0
-4 -4 -4 -10z"/>
<path d="M1954 2785 c-3 -8 -3 -18 0 -24 4 -5 -1 -14 -10 -19 -16 -9 -12 -32
5 -32 11 0 31 46 31 70 0 23 -18 27 -26 5z"/>
<path d="M1803 2731 c4 -18 2 -31 -5 -33 -7 -3 -1 -14 13 -26 l23 -23 17 22
c9 13 21 19 28 15 9 -6 9 -11 0 -22 -9 -11 -8 -14 4 -14 20 0 28 37 11 51 -11
9 -21 9 -39 1 -24 -11 -42 -1 -31 17 8 12 -4 41 -16 41 -6 0 -8 -12 -5 -29z"/>
<path d="M4117 2743 c-21 -21 11 -73 45 -73 15 0 31 55 21 73 -5 9 -57 9 -66
0z"/>
<path d="M4291 2736 c-9 -11 -9 -25 -1 -54 10 -41 24 -52 65 -52 18 0 24 7 28
33 5 26 0 37 -24 60 -33 30 -51 34 -68 13z"/>
<path d="M4493 2685 c0 -22 2 -30 4 -17 2 12 2 30 0 40 -3 9 -5 -1 -4 -23z"/>
<path d="M4247 2523 c-26 -26 16 -109 49 -96 17 6 19 74 2 91 -13 13 -41 16
-51 5z"/>
<path d="M4480 2401 c0 -28 5 -53 10 -56 6 -4 10 15 10 49 0 31 -4 56 -10 56
-5 0 -10 -22 -10 -49z"/>
<path d="M1382 2428 c-25 -25 -11 -89 18 -81 24 6 36 58 20 78 -15 18 -22 19
-38 3z"/>
<path d="M4260 2329 c0 -6 -7 -8 -15 -5 -22 8 -30 -19 -15 -54 12 -30 41 -47
60 -35 13 8 13 46 0 79 -9 26 -30 36 -30 15z"/>
<path d="M4486 2157 c3 -8 -1 -27 -7 -43 -7 -16 -11 -36 -10 -44 1 -12 0 -12
-7 -1 -7 10 -14 11 -31 2 -23 -13 -20 -34 4 -24 18 6 20 -13 3 -21 -10 -5 -10
-7 0 -12 6 -3 12 -14 12 -25 0 -18 -1 -19 -24 -3 -27 17 -67 16 -73 -3 -4 -10
45 -44 62 -43 31 1 32 -3 38 -96 3 -57 10 -100 17 -104 7 -4 16 -23 20 -41 5
-20 8 69 9 219 1 156 -3 252 -9 252 -5 0 -7 -6 -4 -13z"/>
<path d="M4260 2070 c-14 -25 3 -60 29 -60 9 0 28 12 42 26 24 25 24 26 5 40
-28 20 -64 17 -76 -6z"/>
<path d="M4282 1888 c-7 -7 -12 -20 -12 -30 0 -25 30 -35 44 -16 6 8 22 19 35
23 24 7 24 8 6 21 -23 17 -57 18 -73 2z"/>
<path d="M4386 1788 c-20 -11 -21 -48 -2 -74 21 -28 50 -7 54 38 2 28 -1 36
-16 40 -11 3 -27 1 -36 -4z"/>
<path d="M4383 1651 c-3 -11 -14 -21 -25 -24 -24 -7 -22 -45 4 -61 13 -8 26
-5 55 10 49 26 51 44 7 72 -35 21 -36 22 -41 3z"/>
<path d="M4485 1610 c-3 -5 -1 -10 4 -10 6 0 11 5 11 10 0 6 -2 10 -4 10 -3 0
-8 -4 -11 -10z"/>
<path d="M619 1595 c-6 -50 -5 -75 1 -75 12 0 19 64 9 75 -6 6 -9 6 -10 0z"/>
<path d="M675 1520 c-3 -5 1 -10 9 -10 8 0 18 5 21 10 3 6 -1 10 -9 10 -8 0
-18 -4 -21 -10z"/>
<path d="M640 1494 c0 -8 5 -12 10 -9 6 4 8 11 5 16 -9 14 -15 11 -15 -7z"/>
<path d="M600 1479 c0 -18 -4 -20 -26 -15 -17 5 -23 3 -19 -4 3 -5 19 -10 36
-10 18 0 29 -5 29 -14 0 -8 5 -16 12 -18 8 -3 5 -12 -10 -28 -12 -13 -19 -27
-16 -32 3 -4 -13 -8 -35 -8 -44 0 -53 -13 -22 -30 24 -12 54 -13 47 -1 -3 5 1
12 10 15 25 10 34 7 34 -9 0 -8 4 -15 9 -15 16 0 21 30 9 58 -16 38 -15 56 2
63 11 5 8 10 -12 19 -16 8 -28 21 -28 32 0 10 -4 18 -10 18 -5 0 -10 -9 -10
-21z"/>
<path d="M4477 1483 c-12 -12 -7 -50 8 -63 13 -11 15 -7 15 29 0 38 -8 50 -23
34z"/>
<path d="M553 1408 c-6 -7 -13 -21 -16 -30 -8 -22 20 -24 48 -4 17 12 18 15 3
30 -20 19 -23 20 -35 4z"/>
<path d="M465 1360 c-3 -5 -2 -10 4 -10 5 0 13 5 16 10 3 6 2 10 -4 10 -5 0
-13 -4 -16 -10z"/>
<path d="M716 1277 c3 -10 9 -15 12 -12 3 3 0 11 -7 18 -10 9 -11 8 -5 -6z"/>
<path d="M560 1254 c0 -8 5 -12 10 -9 6 4 8 11 5 16 -9 14 -15 11 -15 -7z"/>
<path d="M1127 427 c-3 -9 -2 -19 4 -23 15 -9 18 -2 9 20 -6 17 -7 18 -13 3z"/>
<path d="M1120 364 c0 -8 5 -12 10 -9 6 3 10 10 10 16 0 5 -4 9 -10 9 -5 0
-10 -7 -10 -16z"/>
<path d="M1143 294 c-3 -8 -1 -20 6 -27 8 -8 11 -4 11 16 0 30 -7 35 -17 11z"/>
<path d="M1161 234 c0 -11 3 -14 6 -6 3 7 2 16 -1 19 -3 4 -6 -2 -5 -13z"/>
<path d="M4420 229 c0 -5 5 -7 10 -4 6 3 10 8 10 11 0 2 -4 4 -10 4 -5 0 -10
-5 -10 -11z"/>
<path d="M4477 210 c3 -16 2 -37 -2 -47 -4 -10 -8 -29 -9 -41 -1 -18 -10 -27
-37 -36 -41 -14 -99 -53 -99 -66 0 -4 -9 -6 -20 -3 -11 3 -18 8 -16 12 2 3
-16 7 -40 8 -24 1 -44 -2 -44 -7 0 -5 -15 -14 -32 -19 -24 -7 16 -9 145 -10
l177 -1 0 114 c0 91 -3 115 -15 119 -11 5 -13 0 -8 -23z"/>
<path d="M4396 195 c-9 -26 -7 -32 5 -12 6 10 9 21 6 23 -2 3 -7 -2 -11 -11z"/>
<path d="M1196 157 c3 -10 9 -15 12 -12 3 3 0 11 -7 18 -10 9 -11 8 -5 -6z"/>
<path d="M1116 123 c-4 -16 -3 -50 4 -78 1 -5 6 1 10 15 7 21 8 19 9 -17 1
-31 5 -43 16 -43 12 0 15 13 15 55 0 54 0 54 -25 45 -24 -9 -25 -8 -19 15 7
28 -2 35 -10 8z"/>
<path d="M4225 60 c-3 -5 -2 -10 4 -10 5 0 13 5 16 10 3 6 2 10 -4 10 -5 0
-13 -4 -16 -10z"/>
</g>
</svg>
